<?xml version="1.0" encoding="UTF-8"?>
<svg version="1.1" xmlns="http://www.w3.org/2000/svg" width="1600" height="1600">
<path d="M0 0 C528 0 1056 0 1600 0 C1600 528 1600 1056 1600 1600 C1072 1600 544 1600 0 1600 C0 1072 0 544 0 0 Z " fill="#FEFEFE" transform="translate(0,0)"/>
<path d="M0 0 C26.14063155 18.28354714 43.8102837 44.64539111 49.73046875 76.09375 C52.17673214 94.42714881 50.98192636 113.63411148 45.1796875 131.16796875 C44.95506836 131.85874512 44.73044922 132.54952148 44.49902344 133.26123047 C34.69101243 162.44969992 12.39997168 185.63936756 -14.8125 199.31640625 C-42.54433563 212.54362651 -73.86170547 213.66957475 -102.78125 203.734375 C-132.9503976 192.54069273 -155.60800558 169.78062746 -169.00830078 140.91455078 C-169.67590056 139.47858902 -170.36786622 138.05398015 -171.06640625 136.6328125 C-180.34460022 116.16302269 -181.22371102 88.45718981 -174.8203125 67.16796875 C-174.55347656 66.05421875 -174.28664062 64.94046875 -174.01171875 63.79296875 C-169.34297308 45.200986 -158.98343092 28.92217712 -145.8203125 15.16796875 C-144.80904297 14.04455078 -144.80904297 14.04455078 -143.77734375 12.8984375 C-128.08780048 -3.90968484 -106.61079165 -12.32941025 -84.8203125 -17.83203125 C-83.89013306 -18.10817261 -83.89013306 -18.10817261 -82.94116211 -18.38989258 C-54.6857884 -24.280359 -23.63819535 -15.35500501 0 0 Z " fill="#FE912A" transform="translate(194.8203125,704.83203125)"/>
<path d="M0 0 C10.23 0 20.46 0 31 0 C31.05607422 5.62482422 31.05607422 5.62482422 31.11328125 11.36328125 C31.15970575 15.06051943 31.21086276 18.75766465 31.26245117 22.45483398 C31.29537496 24.99253524 31.32350401 27.53030401 31.34643555 30.06811523 C30.34963055 60.68209592 30.34963055 60.68209592 42.5234375 87.61328125 C47.56306079 91.19018461 54.12618616 90.75084704 60 90 C65.77751544 88.45675715 69.38192014 85.20165069 72.69140625 80.3046875 C82.28362945 63.41092127 81.50095635 42.7247266 81.6875 23.9375 C81.7207524 21.60610159 81.75524903 19.27472057 81.79101562 16.94335938 C81.87728747 11.29556333 81.9381181 5.6483234 82 0 C92.23 0 102.46 0 113 0 C113.11377606 13.91043584 113.20515806 27.82055355 113.25906086 41.73135281 C113.28495491 48.19339472 113.31997629 54.65509689 113.37719727 61.11694336 C113.43224672 67.37401136 113.4615715 73.63075635 113.47438622 79.88804817 C113.48349708 82.25381608 113.5012799 84.61956995 113.52865028 86.98519707 C113.74771262 106.73697705 113.45935037 130.00758094 102 147 C101.4534375 147.81082031 100.906875 148.62164063 100.34375 149.45703125 C91.83139237 161.12283046 79.48981348 169.27516171 65.08203125 171.734375 C64.39496094 171.82203125 63.70789062 171.9096875 63 172 C62.26136719 172.10828125 61.52273438 172.2165625 60.76171875 172.328125 C38.92490639 175.04432425 17.04873486 171.10203917 -0.953125 157.96484375 C-3.21001927 155.79839753 -3.61488424 155.0324452 -4 152 C-3.42675781 149.75756836 -3.42675781 149.75756836 -2.453125 147.33984375 C-2.1025 146.46392578 -1.751875 145.58800781 -1.390625 144.68554688 C-0.82601563 143.32526367 -0.82601563 143.32526367 -0.25 141.9375 C0.1109375 141.02677734 0.471875 140.11605469 0.84375 139.17773438 C3.84318697 131.80411849 3.84318697 131.80411849 7 129 C7.55945312 129.51949219 8.11890625 130.03898438 8.6953125 130.57421875 C15.57035068 136.55395453 22.32522563 139.41223518 31 142 C31.69609375 142.24621094 32.3921875 142.49242187 33.109375 142.74609375 C44.07546005 146.26397502 56.71520617 144.60352299 67 140 C67.73734375 139.70738281 68.4746875 139.41476562 69.234375 139.11328125 C76.41895594 135.59060881 80.11802751 128.14439972 83 121 C87.7082873 107.15267237 87.98993714 92.09796938 88.76635742 77.63110352 C88.97271796 75.30722936 89.35510799 73.23608934 90 71 C88.35 71 86.7 71 85 71 C84.87044922 72.05574219 84.87044922 72.05574219 84.73828125 73.1328125 C82.77510807 86.92905706 78.65745283 100.49584906 67.80078125 109.90625 C56.81023241 117.73198111 44.09454409 118.61043348 31 117 C19.94517327 113.78280584 12.80449523 106.37159235 7.27734375 96.578125 C0.3961465 82.68947001 -0.46767377 65.90893217 -0.29296875 50.68359375 C-0.2873497 49.20573872 -0.28309059 47.72787796 -0.28010559 46.25001526 C-0.26883794 42.4245262 -0.23953522 38.59939775 -0.20599365 34.77404785 C-0.16939352 30.14986877 -0.15604516 25.52556677 -0.13863373 20.90128326 C-0.10987993 13.93394069 -0.0522699 6.96738386 0 0 Z " fill="#6647BA" transform="translate(1119,728)"/>
<path d="M0 0 C13.53782408 11.16756532 19.83567833 28.23005046 21.6328125 45.2890625 C21.75869568 48.29845536 21.74745653 51.29731926 21.70703125 54.30859375 C21.69899475 55.46856873 21.69899475 55.46856873 21.6907959 56.65197754 C21.67699518 58.53105458 21.65570577 60.41007424 21.6328125 62.2890625 C-8.70092342 63.38553286 -39.0166692 63.4024575 -69.3671875 63.2890625 C-68.75358406 66.01715091 -68.13280278 68.7432683 -67.5078125 71.46875 C-67.33588379 72.23662842 -67.16395508 73.00450684 -66.98681641 73.7956543 C-64.77415648 83.38213208 -60.87295975 90.8442398 -52.3671875 96.2890625 C-46.48710747 99.20880305 -40.99826522 99.8373336 -34.4921875 99.7890625 C-33.61103271 99.78406738 -32.72987793 99.77907227 -31.82202148 99.77392578 C-23.25671376 99.54408038 -17.71454193 97.49087978 -11.4921875 91.5390625 C-8.93529901 87.62852716 -7.09048816 83.62138259 -5.3671875 79.2890625 C0.68859765 79.96815055 6.60512498 80.98746177 12.5703125 82.2265625 C13.86291992 82.48083008 13.86291992 82.48083008 15.18164062 82.74023438 C15.99955078 82.90974609 16.81746094 83.07925781 17.66015625 83.25390625 C18.39999756 83.404646 19.13983887 83.55538574 19.90209961 83.71069336 C21.6328125 84.2890625 21.6328125 84.2890625 22.6328125 86.2890625 C20.36955053 94.23862943 17.11798043 101.11995842 11.6328125 107.2890625 C11.16746094 107.88074219 10.70210937 108.47242188 10.22265625 109.08203125 C1.92287746 118.69788749 -13.11796816 123.32605248 -25.39672852 124.60449219 C-28.4567052 124.76018087 -31.4908868 124.807847 -34.5546875 124.7890625 C-35.6389502 124.78406738 -36.72321289 124.77907227 -37.84033203 124.77392578 C-54.968812 124.40603516 -70.44817769 118.74034206 -83.01171875 106.8359375 C-97.57313592 91.09125426 -100.09355923 72.6223618 -99.671875 51.98828125 C-99.01130006 35.5093933 -92.24462683 17.09566223 -80.3671875 5.2890625 C-58.16094335 -13.75479007 -24.35453702 -17.60278418 0 0 Z " fill="#6749BC" transform="translate(844.3671875,735.7109375)"/>
<path d="M0 0 C12.64728077 10.49566868 17.92034565 23.8556936 19.47854614 39.97039795 C19.94912634 47.35631458 19.80752017 54.76640721 19.78515625 62.1640625 C19.78328814 63.98822999 19.78186609 65.81239799 19.78086853 67.63656616 C19.77707431 72.40730201 19.76727089 77.17800679 19.75616455 81.94873047 C19.74588345 86.82909729 19.74135664 91.70946919 19.73632812 96.58984375 C19.72564547 106.14324493 19.70807418 115.696615 19.6875 125.25 C9.4575 125.25 -0.7725 125.25 -11.3125 125.25 C-11.32708252 123.08687256 -11.34166504 120.92374512 -11.35668945 118.69506836 C-11.40737548 111.49056648 -11.47402666 104.28627308 -11.54821491 97.08197689 C-11.59264986 92.72060486 -11.63196239 88.35932049 -11.65893555 83.99780273 C-11.68524025 79.77655844 -11.72582641 75.55565655 -11.77568626 71.33462715 C-11.79217372 69.73661166 -11.80379931 68.13853721 -11.81011391 66.54044914 C-11.80158628 45.23376705 -11.80158628 45.23376705 -20.625 26.5 C-26.82153904 21.31219987 -32.02081003 20.71590655 -39.89453125 20.8984375 C-47.02394064 21.63174818 -51.7247609 24.79431026 -56.3125 30.25 C-65.792237 43.66312042 -67.75401314 58.05367309 -67.82421875 74.17578125 C-67.84111248 75.65937233 -67.8592688 77.14294951 -67.87861633 78.62651062 C-67.92561418 82.48472747 -67.95574516 86.34288799 -67.98205566 90.20129395 C-68.01742688 94.85561723 -68.07429276 99.50972415 -68.12744904 104.16387177 C-68.20537231 111.19255143 -68.25642237 118.22095956 -68.3125 125.25 C-78.5425 125.25 -88.7725 125.25 -99.3125 125.25 C-99.3125 82.68 -99.3125 40.11 -99.3125 -3.75 C-90.7325 -3.75 -82.1525 -3.75 -73.3125 -3.75 C-73.3125 9.12 -73.3125 21.99 -73.3125 35.25 C-71.8275 35.745 -71.8275 35.745 -70.3125 36.25 C-70.07466797 35.25033203 -70.07466797 35.25033203 -69.83203125 34.23046875 C-67.46077467 24.86335023 -64.12251242 16.05720419 -58.3125 8.25 C-57.260625 6.765 -57.260625 6.765 -56.1875 5.25 C-43.12189915 -10.16903206 -15.86281942 -11.10094055 0 0 Z " fill="#6548BA" transform="translate(1363.3125,731.75)"/>
<path d="M0 0 C7.85274737 6.19744649 12.72169824 15.53951405 14.50390625 25.328125 C10.54719509 26.6663066 6.58828097 27.997847 2.62890625 29.328125 C1.50097656 29.7096875 0.37304688 30.09125 -0.7890625 30.484375 C-2.40361328 31.02578125 -2.40361328 31.02578125 -4.05078125 31.578125 C-5.04577637 31.91328125 -6.04077148 32.2484375 -7.06591797 32.59375 C-9.49609375 33.328125 -9.49609375 33.328125 -11.49609375 33.328125 C-11.72683594 32.66425781 -11.95757813 32.00039063 -12.1953125 31.31640625 C-15.2100398 23.1540023 -18.67608815 18.92036533 -26.53125 15.125 C-35.07906411 11.65829209 -47.20414979 11.83827591 -55.96484375 14.3046875 C-60.18203507 16.32645863 -62.78959982 17.84321883 -64.49609375 22.328125 C-64.81898444 25.87992257 -64.75084895 28.56385939 -63.62109375 31.953125 C-57.34122577 38.97180098 -47.34505146 40.56739513 -38.51934814 42.35354614 C-35.07380306 43.0553048 -31.64032379 43.81117886 -28.20703125 44.5703125 C-27.5352182 44.71870071 -26.86340515 44.86708893 -26.17123413 45.01997375 C-14.69230259 47.59237425 -2.62453632 50.53172985 6.50390625 58.328125 C7.14585937 58.86179687 7.7878125 59.39546875 8.44921875 59.9453125 C14.32370347 65.27904967 17.3302058 70.62641738 17.8828125 78.58984375 C18.20411501 86.79890861 18.21434304 94.29172718 13.50390625 101.328125 C12.85035156 102.36646484 12.85035156 102.36646484 12.18359375 103.42578125 C4.29461172 114.95748995 -8.52254364 119.7367046 -21.74609375 122.703125 C-41.53057989 125.62312446 -65.11565964 124.3078874 -81.93359375 112.515625 C-89.1432402 106.51808069 -95.91026871 99.51981708 -97.18359375 89.953125 C-97.33828125 88.15875 -97.33828125 88.15875 -97.49609375 86.328125 C-90.25975084 83.18242954 -83.09108606 80.46106402 -75.49609375 78.328125 C-74.01109375 77.833125 -74.01109375 77.833125 -72.49609375 77.328125 C-72.26535156 77.99199219 -72.03460937 78.65585937 -71.796875 79.33984375 C-68.49036969 88.29223954 -64.4961686 92.11558804 -55.99609375 96.3125 C-50.06119129 98.72355412 -44.05379913 98.5444839 -37.74609375 98.578125 C-36.31910156 98.6090625 -36.31910156 98.6090625 -34.86328125 98.640625 C-28.68067376 98.6745023 -23.10693141 98.09962555 -17.49609375 95.328125 C-14.25724545 92.00830549 -12.61951481 89.63638823 -12.18359375 85.015625 C-12.55670543 80.61290721 -13.45303773 79.45126144 -16.49609375 76.328125 C-19.48256089 74.73724581 -19.48256089 74.73724581 -22.80859375 73.640625 C-23.89785156 73.24488281 -24.98710938 72.84914063 -26.109375 72.44140625 C-31.9280666 70.52868756 -37.57110342 69.09757676 -43.62109375 68.140625 C-50.39731775 66.94940623 -56.89277192 65.14008857 -63.43359375 63.015625 C-64.29678223 62.74403564 -65.1599707 62.47244629 -66.04931641 62.19262695 C-72.23573656 60.11282276 -77.2253979 57.14578116 -82.49609375 53.328125 C-83.38296875 52.73 -84.26984375 52.131875 -85.18359375 51.515625 C-90.48517927 46.50061167 -94.51029779 40.40772794 -94.76953125 33.01171875 C-95.26297597 14.97683194 -95.26297597 14.97683194 -89.49609375 7.328125 C-88.79226563 6.35359375 -88.79226563 6.35359375 -88.07421875 5.359375 C-68.30606516 -19.72279838 -23.89616807 -16.0055711 0 0 Z " fill="#6748BC" transform="translate(619.49609375,736.671875)"/>
<path d="M0 0 C1.03382812 -0.01224609 2.06765625 -0.02449219 3.1328125 -0.03710938 C19.20149078 -0.06746582 34.04599559 4.38856189 46.25 15.1875 C52.02192078 21.27206649 56.39910151 28.69485325 56.25 37.1875 C52.8366479 38.36402472 49.41882405 39.52698174 46 40.6875 C45.03191406 41.02136719 44.06382813 41.35523438 43.06640625 41.69921875 C42.13183594 42.01503906 41.19726562 42.33085938 40.234375 42.65625 C39.37553711 42.94951172 38.51669922 43.24277344 37.63183594 43.54492188 C35.25 44.1875 35.25 44.1875 31.25 44.1875 C31.01925781 43.59582031 30.78851562 43.00414062 30.55078125 42.39453125 C27.3897403 34.73556641 23.68823697 30.59528182 16.21484375 26.984375 C7.48869441 23.44534028 -5.54448283 23.33652289 -14.3203125 26.45703125 C-18.77864431 29.09846497 -18.77864431 29.09846497 -21.75 33.1875 C-22.22644553 36.59499015 -22.28754017 39.7848707 -21.75 43.1875 C-14.7180336 51.92994472 -0.31970084 53.35824114 10 55.625 C45.69578509 63.7004114 45.69578509 63.7004114 56.4375 78.125 C61.54155475 86.7490925 61.61297652 97.5278932 59.6328125 107.203125 C56.66276682 115.56130666 50.32978447 122.68566033 42.64453125 127.06640625 C30.12365929 132.92854369 18.29336899 135.56979094 4.5625 135.5 C2.8304834 135.49154053 2.8304834 135.49154053 1.06347656 135.48291016 C-15.85049242 135.2422352 -32.23864301 131.64219728 -44.6953125 119.41015625 C-49.69325396 114.00363782 -53.40866019 108.59224326 -54.75 101.1875 C-54.57641602 99.18920898 -54.57641602 99.18920898 -53.75 97.1875 C-51.64868164 95.99902344 -51.64868164 95.99902344 -48.91015625 95.046875 C-47.92982422 94.69882812 -46.94949219 94.35078125 -45.93945312 93.9921875 C-44.90755859 93.64414062 -43.87566406 93.29609375 -42.8125 92.9375 C-41.78447266 92.57398438 -40.75644531 92.21046875 -39.69726562 91.8359375 C-32.11536654 89.1875 -32.11536654 89.1875 -29.75 89.1875 C-29.59144531 89.77917969 -29.43289063 90.37085938 -29.26953125 90.98046875 C-26.91275294 98.96226492 -22.88824168 102.65519833 -16.0078125 107.07421875 C-9.26311742 110.3998902 -2.83853169 110.55289451 4.5625 110.5625 C6.03493164 110.59923828 6.03493164 110.59923828 7.53710938 110.63671875 C15.52159489 110.66842419 22.68477094 109.24341063 28.875 103.9375 C30.67237015 100.3427597 31.26325664 97.12131988 30.25 93.1875 C23.59630584 83.3553701 9.31396029 82.07345868 -1.5625 79.75 C-37.41042754 71.75498002 -37.41042754 71.75498002 -48.62890625 56.2421875 C-51.53455568 50.91685092 -52.10904083 45.8581564 -52.0625 39.875 C-52.05686035 39.120979 -52.0512207 38.36695801 -52.04541016 37.59008789 C-51.83887973 28.11729387 -49.29588781 21.17667592 -42.75 14.1875 C-30.48886586 3.19563441 -16.04309604 0.00985448 0 0 Z " fill="#6748BC" transform="translate(1037.75,724.8125)"/>
<path d="M0 0 C4.77688155 3.75698091 7.91582377 8.3983886 10.98046875 13.59765625 C11.38523437 14.28214844 11.79 14.96664062 12.20703125 15.671875 C14.77040927 20.36525418 15.42224965 24.28628443 15.98046875 29.59765625 C6.40426905 33.39617449 -2.88033612 36.6184298 -13.01953125 38.59765625 C-13.10589844 38.04078125 -13.19226562 37.48390625 -13.28125 36.91015625 C-14.82274396 28.53800555 -17.99174089 22.48909732 -25.078125 17.60546875 C-32.33811917 13.83669914 -40.76664672 13.15584076 -48.65234375 15.3203125 C-58.76949927 19.55579964 -62.92811823 25.61653953 -67.01953125 35.59765625 C-72.7466674 51.44916793 -70.83161552 68.76223161 -64.33203125 84.09765625 C-60.35675989 91.15611052 -53.53688325 95.99549594 -46.01953125 98.59765625 C-43.06907439 99.04145083 -40.18772487 99.12261119 -37.20703125 99.09765625 C-36.01835449 99.08907593 -36.01835449 99.08907593 -34.80566406 99.08032227 C-26.44247726 98.82593201 -20.39147663 96.41813006 -14.58203125 90.28515625 C-11.8027842 86.68387838 -10.34186008 82.9113509 -9.01953125 78.59765625 C-8.3548776 76.59698637 -7.6883919 74.59692359 -7.01953125 72.59765625 C-2.7058354 73.40389227 1.60619914 74.21868657 5.91796875 75.03515625 C7.14966797 75.26525391 8.38136719 75.49535156 9.65039062 75.73242188 C11.40512695 76.0659668 11.40512695 76.0659668 13.1953125 76.40625 C14.2793335 76.61048584 15.36335449 76.81472168 16.48022461 77.02514648 C18.98046875 77.59765625 18.98046875 77.59765625 19.98046875 78.59765625 C19.60733152 89.97834172 14.98585695 100.48633664 6.98046875 108.59765625 C-5.82836983 119.76744913 -20.14301691 124.00094322 -36.83203125 123.91015625 C-37.89647461 123.9052417 -38.96091797 123.90032715 -40.05761719 123.89526367 C-47.42174607 123.78517435 -54.0776488 123.21131681 -61.01953125 120.59765625 C-62.04046875 120.23414063 -63.06140625 119.870625 -64.11328125 119.49609375 C-72.92515236 116.11530162 -79.60874373 111.51455857 -86.01953125 104.59765625 C-86.4784375 104.16710937 -86.93734375 103.7365625 -87.41015625 103.29296875 C-98.92981577 91.59141987 -102.23027844 72.78152561 -102.39453125 57.03515625 C-102.23501678 40.16020449 -97.90218711 21.18259673 -86.01953125 8.59765625 C-85.19453125 7.71078125 -84.36953125 6.82390625 -83.51953125 5.91015625 C-82.28203125 4.76546875 -82.28203125 4.76546875 -81.01953125 3.59765625 C-80.3234375 2.89382813 -80.3234375 2.89382813 -79.61328125 2.17578125 C-58.69614061 -17.71600936 -22.38267011 -15.54231831 0 0 Z " fill="#6648BC" transform="translate(1508.01953125,736.40234375)"/>
<path d="M0 0 C5.94 0 11.88 0 18 0 C18 9.24 18 18.48 18 28 C29.22 28 40.44 28 52 28 C52 36.58 52 45.16 52 54 C40.78 54 29.56 54 18 54 C18.0677835 61.77406674 18.13841395 69.5472459 18.2355423 77.32086182 C18.27999551 80.9417505 18.31947181 84.56252901 18.34643555 88.18359375 C18.37266078 91.67866463 18.41319423 95.17331633 18.46318626 98.66812515 C18.48771369 100.63419292 18.49784972 102.60042352 18.50764465 104.56661987 C18.58264056 117.15506998 18.58264056 117.15506998 24.6640625 127.6015625 C28.77687028 129.32566693 31.96999681 129.5239236 36.375 129.375 C37.45007813 129.37306641 37.45007813 129.37306641 38.546875 129.37109375 C43.84843236 129.28496737 47.54818751 128.36295312 53 127 C53 136.57 53 146.14 53 156 C35.84833621 160.28791595 20.68037641 162.99964434 4.75 154.3125 C-3.66196692 148.99064337 -8.2690659 140.70977755 -10.58343124 131.16218567 C-11.22767043 127.81828454 -11.26279987 124.50538983 -11.22705078 121.11523438 C-11.22734283 120.3727948 -11.22763489 119.63035522 -11.22793579 118.86541748 C-11.22655612 116.44140426 -11.21106017 114.0177087 -11.1953125 111.59375 C-11.19157751 109.90124682 -11.18873283 108.20874147 -11.18673706 106.51623535 C-11.17913888 102.0840853 -11.15952358 97.65206849 -11.1373291 93.2199707 C-11.11678806 88.68833213 -11.10771776 84.15667181 -11.09765625 79.625 C-11.07627372 70.74993235 -11.0411231 61.87499816 -11 53 C-17.27 53 -23.54 53 -30 53 C-30 44.75 -30 36.5 -30 28 C-20.3125 27.6875 -20.3125 27.6875 -17.28637695 27.61206055 C-10.61461089 27.37186927 -10.61461089 27.37186927 -5 24 C-3.82511986 21.75505609 -3.82511986 21.75505609 -3.3125 19.125 C-3.085625 18.16207031 -2.85875 17.19914063 -2.625 16.20703125 C-1.57596578 10.82417439 -0.75924853 5.43154716 0 0 Z " fill="#6547BA" transform="translate(677,700)"/>
<path d="M0 0 C1.64162109 -0.00386719 1.64162109 -0.00386719 3.31640625 -0.0078125 C6.15105228 0.11281074 8.67234125 0.5351229 11.4375 1.125 C11.46670143 5.31248519 11.48436646 9.49994391 11.5 13.6875 C11.50837891 14.86892578 11.51675781 16.05035156 11.52539062 17.26757812 C11.54142999 22.99363072 11.4885705 28.48894482 10.4375 34.125 C9.58091797 34.01671875 9.58091797 34.01671875 8.70703125 33.90625 C-3.75296618 32.47998638 -13.42348175 32.01445366 -24.25 38.8125 C-34.14021103 48.70271103 -38.57109474 62.72663209 -38.76782227 76.49755859 C-38.78776749 77.73839203 -38.80771271 78.97922546 -38.82826233 80.25765991 C-38.84524121 81.59625121 -38.86212021 82.93484377 -38.87890625 84.2734375 C-38.89950178 85.65492335 -38.9204989 87.03640327 -38.94187927 88.4178772 C-38.99683178 92.03781298 -39.04635824 95.65780308 -39.09472656 99.27783203 C-39.14513861 102.97823866 -39.20067176 106.67856827 -39.25585938 110.37890625 C-39.36359292 117.62754437 -39.46282409 124.87622869 -39.5625 132.125 C-49.7925 132.125 -60.0225 132.125 -70.5625 132.125 C-70.5625 89.555 -70.5625 46.985 -70.5625 3.125 C-61.9825 3.125 -53.4025 3.125 -44.5625 3.125 C-44.5625 17.975 -44.5625 32.825 -44.5625 48.125 C-43.5725 48.125 -42.5825 48.125 -41.5625 48.125 C-41.32015625 46.86945312 -41.0778125 45.61390625 -40.828125 44.3203125 C-37.70700301 28.54927208 -34.401464 15.02828228 -20.47265625 5.33984375 C-13.71333444 1.04097037 -7.94625762 -0.0187633 0 0 Z " fill="#6648BB" transform="translate(961.5625,724.875)"/>
<path d="M0 0 C1.20785156 -0.00257813 2.41570312 -0.00515625 3.66015625 -0.0078125 C6.33734936 0.10067924 8.39047462 0.42736514 10.9375 1.125 C10.81935874 5.50344408 10.69511831 9.88165929 10.56518555 14.25976562 C10.52183411 15.74962641 10.48015916 17.23953695 10.44018555 18.72949219 C10.38248785 20.86929327 10.31879245 23.00884385 10.25390625 25.1484375 C10.21724854 26.43669434 10.18059082 27.72495117 10.14282227 29.05224609 C9.9375 32.125 9.9375 32.125 8.9375 34.125 C7.94492187 33.96773437 6.95234375 33.81046875 5.9296875 33.6484375 C-3.25999969 32.35014585 -13.12768523 31.3350204 -21.16796875 36.640625 C-21.79316406 37.13046875 -22.41835938 37.6203125 -23.0625 38.125 C-23.88105469 38.68445313 -24.69960938 39.24390625 -25.54296875 39.8203125 C-28.76828288 42.77059984 -30.32599675 45.8430505 -32.1875 49.75 C-32.52136719 50.41128906 -32.85523438 51.07257812 -33.19921875 51.75390625 C-38.28762627 62.15022122 -39.52216031 71.57318657 -39.57421875 83.1015625 C-39.59109981 84.52218136 -39.60925455 85.94278559 -39.62861633 87.3633728 C-39.67575135 91.0687401 -39.70579496 94.7740481 -39.73205566 98.47961426 C-39.7673378 102.94364427 -39.82424462 107.40744665 -39.87744904 111.87129211 C-39.95553415 118.62249748 -40.00646222 125.37341376 -40.0625 132.125 C-50.2925 132.125 -60.5225 132.125 -71.0625 132.125 C-71.0625 89.885 -71.0625 47.645 -71.0625 4.125 C-62.4825 3.795 -53.9025 3.465 -45.0625 3.125 C-45.0625 17.975 -45.0625 32.825 -45.0625 48.125 C-44.0725 48.125 -43.0825 48.125 -42.0625 48.125 C-41.98773438 47.444375 -41.91296875 46.76375 -41.8359375 46.0625 C-39.87603398 31.61301521 -34.76100177 15.80354354 -22.98828125 6.40625 C-15.72158787 1.57161424 -8.6470329 -0.01849633 0 0 Z " fill="#6446BA" transform="translate(389.0625,724.875)"/>
<path d="M0 0 C4.62 0 9.24 0 14 0 C14.85500714 16.88639111 10.92002334 32.27205504 -0.3125 45.1875 C-1.85701799 46.80898732 -3.41917534 48.4138883 -5 50 C-5.68835938 50.7115625 -6.37671875 51.423125 -7.0859375 52.15625 C-13.2571528 58.12099342 -20.22716237 61.52663053 -28 65 C-28.77859375 65.35320312 -29.5571875 65.70640625 -30.359375 66.0703125 C-37.80104764 68.69030967 -44.95703144 69.35759532 -52.8125 69.3125 C-53.77937744 69.30976074 -54.74625488 69.30702148 -55.74243164 69.30419922 C-62.85660923 69.20020301 -69.23956905 68.29072454 -76 66 C-77.41497379 65.59815719 -78.83141993 65.20142037 -80.25 64.8125 C-81.61125 64.4103125 -81.61125 64.4103125 -83 64 C-82.67 65.65 -82.34 67.3 -82 69 C-85.9231764 67.38402496 -88.71490982 64.68744238 -91.75 61.8125 C-92.81158758 60.81803551 -93.87409026 59.82454701 -94.9375 58.83203125 C-95.45570313 58.34814941 -95.97390625 57.86426758 -96.5078125 57.36572266 C-99.14226308 54.95454521 -101.90141992 52.68990251 -104.671875 50.4375 C-106 49 -106 49 -106 46 C-84.14870064 35.5202952 -84.14870064 35.5202952 -78.58984375 36.3671875 C-78.06519531 36.57601562 -77.54054688 36.78484375 -77 37 C-77.99 38.98 -78.98 40.96 -80 43 C-78.79443396 43.63032133 -77.58536811 44.2539497 -76.375 44.875 C-75.36566406 45.39707031 -75.36566406 45.39707031 -74.3359375 45.9296875 C-63.05351447 51.09922581 -47.70088911 50.80732319 -35.8125 47.4375 C-20.81180006 41.79739514 -11.36251066 33.76574879 -4.4453125 19.46484375 C-2.34415983 14.42775613 -0.87717131 9.50268915 -0.375 4.0625 C-0.189375 2.0515625 -0.189375 2.0515625 0 0 Z " fill="#6C4DC2" transform="translate(514,787)"/>
<path d="M0 0 C-0.495 -2.97 -0.495 -2.97 -1 -6 C4.61355113 -3.59248297 8.44399705 1.11574536 12.6875 5.375 C13.56728516 6.23867188 14.44707031 7.10234375 15.35351562 7.9921875 C16.18947266 8.8275 17.02542969 9.6628125 17.88671875 10.5234375 C18.65201904 11.28575684 19.41731934 12.04807617 20.20581055 12.83349609 C21.98747326 14.98487382 22.61460737 16.27087789 23 19 C17.2345759 21.12358134 11.30568466 22.33887678 5.3125 23.625 C3.74532227 23.96917969 3.74532227 23.96917969 2.14648438 24.3203125 C-5.61707124 26 -5.61707124 26 -9 26 C-9 25.34 -9 24.68 -9 24 C-8.34 24 -7.68 24 -7 24 C-6.690625 23.38125 -6.38125 22.7625 -6.0625 22.125 C-5.375 20.75 -4.6875 19.375 -4 18 C-5.74985354 17.52029877 -7.49988891 17.04126076 -9.25 16.5625 C-10.22453125 16.29566406 -11.1990625 16.02882813 -12.203125 15.75390625 C-13.12609375 15.50511719 -14.0490625 15.25632812 -15 15 C-15.60247559 14.82509033 -16.20495117 14.65018066 -16.82568359 14.4699707 C-33.05722328 10.96158154 -50.28207461 13.38647047 -64.22314453 22.11279297 C-76.08898039 29.98392134 -83.8450905 42.11839822 -87 56 C-90.63 56 -94.26 56 -98 56 C-97.17064676 37.75422874 -91.49868182 23.76669588 -78 11 C-54.75182073 -8.36780967 -27.64015184 -9.54294511 0 0 Z " fill="#6B4DC2" transform="translate(492,734)"/>
<path d="M0 0 C1.25490234 0.68255859 1.25490234 0.68255859 2.53515625 1.37890625 C8.44922399 6.4467334 9.89955201 14.35449896 11.4453125 21.67578125 C11.65686981 22.63719528 11.86842712 23.59860931 12.08639526 24.5891571 C12.75509627 27.64069128 13.40878531 30.69522459 14.0625 33.75 C14.50817888 35.78861624 14.9547855 37.8270299 15.40234375 39.86523438 C24.20119936 80.18110818 24.20119936 80.18110818 18.28125 89.6953125 C14.85480615 94.1377368 11.63551293 98.30549138 6.9375 101.4375 C7.39412778 108.431066 8.64109481 114.76253674 10.75 121.4375 C11.02279785 122.31470703 11.2955957 123.19191406 11.57666016 124.09570312 C12.34863209 126.5481178 13.13817179 128.99388549 13.9375 131.4375 C14.26878906 132.4584375 14.60007812 133.479375 14.94140625 134.53125 C20.17523754 148.98882881 30.06572663 159.84970375 43.25 167.3125 C47.37106563 169.03759724 51.361151 169.55340682 55.80078125 169.75390625 C56.68701172 169.79580078 57.57324219 169.83769531 58.48632812 169.88085938 C59.39833984 169.92017578 60.31035156 169.95949219 61.25 170 C62.64702148 170.06477539 62.64702148 170.06477539 64.07226562 170.13085938 C66.36054454 170.23647225 68.64892372 170.33857752 70.9375 170.4375 C70.9375 171.7575 70.9375 173.0775 70.9375 174.4375 C61.25797656 177.66400781 49.32729214 176.20679339 40.34375 171.7890625 C37.38827132 170.12900467 34.62502499 168.51422386 31.9375 166.4375 C31.33808594 165.99277344 30.73867187 165.54804687 30.12109375 165.08984375 C19.4850724 156.61849211 12.00022691 143.64579921 7.9375 130.8125 C7.55404419 129.6376001 7.55404419 129.6376001 7.1628418 128.43896484 C5.98574865 124.81104454 4.84865878 121.17387677 3.76953125 117.515625 C3.43308594 116.37609375 3.09664062 115.2365625 2.75 114.0625 C2.46769531 113.06476563 2.18539062 112.06703125 1.89453125 111.0390625 C0.89385519 108.31885737 -0.03136887 106.50731934 -2.0625 104.4375 C-3.9986507 103.96226774 -3.9986507 103.96226774 -6.125 104.0625 C-12.81391457 103.5722701 -18.1482735 100.3517265 -22.8515625 95.6484375 C-32.86020557 83.17612845 -37.12744506 65.45911297 -42.28125 50.52734375 C-43.42353924 47.23011082 -44.60856708 43.95493988 -45.84375 40.69140625 C-46.1229126 39.94149414 -46.4020752 39.19158203 -46.68969727 38.41894531 C-47.20967197 37.0271239 -47.74050187 35.63928233 -48.28491211 34.25683594 C-50.42229825 28.47202566 -51.3699562 22.55113281 -48.92578125 16.73046875 C-41.92283469 7.22268991 -41.92283469 7.22268991 -35.875 5.5625 C-34.946875 5.52125 -34.01875 5.48 -33.0625 5.4375 C-31.0625 7.4375 -31.0625 7.4375 -30.9375 9.8125 C-32.69409534 13.91122246 -36.07829474 14.82430955 -40.0625 16.4375 C-41.031875 16.80875 -42.00125 17.18 -43 17.5625 C-45.2385887 18.24906559 -45.2385887 18.24906559 -46.0625 20.4375 C-46.80941337 27.0352348 -45.0418327 31.74936242 -42.54296875 37.83203125 C-41.27591797 40.91775122 -40.10641664 44.01184441 -38.96972656 47.14599609 C-36.1810824 54.8138216 -33.00849379 62.26061813 -29.60229492 69.67456055 C-27.0625 75.23930761 -27.0625 75.23930761 -27.0625 77.4375 C-11.60284877 78.15193831 0.11042177 75.76405879 12.9375 66.4375 C13.2675 66.1075 13.5975 65.7775 13.9375 65.4375 C13.86888052 63.15722205 13.5653399 60.91874818 13.3046875 58.65234375 C13.04956944 56.41870369 12.82800186 54.18107905 12.6328125 51.94140625 C11.72277748 42.57176001 10.04387261 33.4527033 8.0625 24.25 C7.81798096 23.07961182 7.57346191 21.90922363 7.3215332 20.70336914 C5.7288107 13.55552869 4.17301326 8.67301326 -1.0625 3.4375 C-3.80063331 3.73512319 -6.35552086 4.23224799 -9 5 C-12.04299447 5.64548368 -14.96546352 5.5543693 -18.0625 5.4375 C-19.0625 4.4375 -19.0625 4.4375 -19.3125 2 C-19.23 1.154375 -19.1475 0.30875 -19.0625 -0.5625 C-12.52256576 -4.92245616 -6.52389356 -3.70057023 0 0 Z " fill="#FBF1E9" transform="translate(86.0625,730.5625)"/>
<path d="M0 0 C7.45532787 4.40879854 12.37005209 9.87186501 15.5 17.9375 C15.995 22.8875 15.995 22.8875 16.5 27.9375 C-3.3 27.9375 -23.1 27.9375 -43.5 27.9375 C-42.30115807 18.34676459 -39.77292317 11.05925819 -32.48828125 4.4765625 C-22.99241716 -2.87387061 -11.26514889 -5.1689174 0 0 Z " fill="#FCFCFE" transform="translate(820.5,752.0625)"/>
<path d="M0 0 C4.30855193 2.54402984 7.07681521 5.02097039 8.375 9.9375 C9.20697542 16.5737275 8.7990706 22.1520014 5.375 27.9375 C0.15279597 33.30890986 -6.22518031 35.09843742 -13.5 35.5 C-19.88993797 35.32992561 -24.91023972 33.2854573 -29.625 28.9375 C-32.42697805 24.51299568 -33.03394157 21.07371685 -33 15.875 C-33.00773437 14.68777344 -33.01546875 13.50054688 -33.0234375 12.27734375 C-32.45349026 7.4998448 -30.74337032 4.96757793 -27.25 1.75 C-19.29306707 -3.74407274 -8.74527506 -3.95031741 0 0 Z " fill="#FE922D" transform="translate(1572.625,825.0625)"/>
<path d="M0 0 C0.91641037 16.78049209 0.91641037 16.78049209 -3.57421875 22.5234375 C-7.79933648 26.89903887 -11.77393355 29.62659258 -17.90234375 30.3359375 C-24.13905515 30.41620406 -28.23025947 30.43696793 -33 26 C-40.22458044 18.79047077 -40.22458044 18.79047077 -41 13 C-39.94941406 12.96261719 -38.89882813 12.92523437 -37.81640625 12.88671875 C-30.14743325 12.55400049 -23.08409569 12.22366152 -16 9 C-15.14664063 8.61457031 -14.29328125 8.22914063 -13.4140625 7.83203125 C-10.01662204 6.21301637 -3.10984647 0 0 0 Z " fill="#FE9831" transform="translate(102,799)"/>
<path d="M0 0 C0.66 0 1.32 0 2 0 C3.00354037 4.29084682 4.00223371 8.58280716 5 12.875 C5.28617187 14.09832031 5.57234375 15.32164062 5.8671875 16.58203125 C6.27324219 18.33193359 6.27324219 18.33193359 6.6875 20.1171875 C6.93886719 21.19597168 7.19023437 22.27475586 7.44921875 23.38623047 C8 26 8 26 8 28 C8.66 28 9.32 28 10 28 C10.33 26.68 10.66 25.36 11 24 C17.93 24 24.86 24 32 24 C32 24.99 32 25.98 32 27 C25.4 27 18.8 27 12 27 C11.01 29.97 10.02 32.94 9 36 C8.34 36 7.68 36 7 36 C6.37346016 33.52121375 5.74874328 31.04199014 5.125 28.5625 C4.95097656 27.87478516 4.77695313 27.18707031 4.59765625 26.47851562 C3.30530864 21.33305753 2.15193416 16.18370373 1 11 C-0.98 17.27 -2.96 23.54 -5 30 C-9.64573679 28.8385658 -10.19824461 27.642282 -13 24 C-13.66 24 -14.32 24 -15 24 C-16.98 29.61 -18.96 35.22 -21 41 C-24 40 -24 40 -25.07495117 37.86694336 C-25.39439697 36.95050049 -25.71384277 36.03405762 -26.04296875 35.08984375 C-26.39423828 34.10048828 -26.74550781 33.11113281 -27.10742188 32.09179688 C-27.46384766 31.05087891 -27.82027344 30.00996094 -28.1875 28.9375 C-28.55552734 27.89271484 -28.92355469 26.84792969 -29.30273438 25.77148438 C-30.21232749 23.1844598 -31.11085328 20.59410848 -32 18 C-35.26522994 21.26522994 -35.71686328 25.74694808 -36.90234375 30.12890625 C-37.26457031 31.07636719 -37.62679687 32.02382813 -38 33 C-38.99 33.33 -39.98 33.66 -41 34 C-41.99 32.02 -42.98 30.04 -44 28 C-54.23 27.67 -64.46 27.34 -75 27 C-75.33 26.01 -75.66 25.02 -76 24 C-71.21281308 23.97528262 -66.4256633 23.95713175 -61.63842773 23.94506836 C-60.00984042 23.94003935 -58.38125763 23.93321535 -56.75268555 23.92456055 C-54.41193528 23.91243231 -52.0712447 23.90675737 -49.73046875 23.90234375 C-49.00224411 23.89718246 -48.27401947 23.89202118 -47.52372742 23.88670349 C-44.40397712 23.88635721 -41.98366812 24.00544396 -39 25 C-38.61908203 23.64455078 -38.61908203 23.64455078 -38.23046875 22.26171875 C-37.88628906 21.08222656 -37.54210937 19.90273438 -37.1875 18.6875 C-36.85105469 17.51574219 -36.51460937 16.34398437 -36.16796875 15.13671875 C-35.08908941 12.23926019 -34.37542816 10.88536848 -32 9 C-28.75218086 15.76185296 -26.06473044 22.47931795 -23.89453125 29.6640625 C-23.23960392 32.16159181 -23.23960392 32.16159181 -21 33 C-20.80664062 32.18015625 -20.61328125 31.3603125 -20.4140625 30.515625 C-20.15367187 29.43796875 -19.89328125 28.3603125 -19.625 27.25 C-19.24214844 25.64898438 -19.24214844 25.64898438 -18.8515625 24.015625 C-18.12466459 21.44147278 -17.2973776 19.32399814 -16 17 C-12.18447383 18.49895671 -10.46254954 20.7986856 -8 24 C-7.34 24.33 -6.68 24.66 -6 25 C-5.97421875 24.44054687 -5.9484375 23.88109375 -5.921875 23.3046875 C-4.59861592 4.59861592 -4.59861592 4.59861592 0 0 Z " fill="#FAF2E9" transform="translate(194,784)"/>
<path d="M0 0 C0.99 0 1.98 0 3 0 C4.32 6.6 5.64 13.2 7 20 C7.66 20 8.32 20 9 20 C9.33 18.68 9.66 17.36 10 16 C16.93 16 23.86 16 31 16 C31 16.99 31 17.98 31 19 C24.4 19 17.8 19 11 19 C10.01 21.97 9.02 24.94 8 28 C7.34 28 6.68 28 6 28 C0 4.26213592 0 4.26213592 0 0 Z " fill="#FDF7EF" transform="translate(195,792)"/>
<path d="M0 0 C2 2 2 2 2.24330235 3.83398914 C2.24015994 4.58219268 2.23701754 5.33039621 2.23377991 6.10127258 C2.23508408 6.96030685 2.23638824 7.81934113 2.23773193 8.70440674 C2.22897034 9.64926941 2.22020874 10.59413208 2.21118164 11.56762695 C2.2098674 12.56140854 2.20855316 13.55519012 2.2071991 14.5790863 C2.20068123 17.8822462 2.18022241 21.18517824 2.16015625 24.48828125 C2.15388508 26.78598276 2.14864524 29.0836873 2.14439392 31.38139343 C2.1310567 37.45098771 2.10662801 43.52048241 2.07904053 49.59002686 C2.0360468 59.26583619 2.00604929 68.9416687 1.9829998 78.61754417 C1.97285222 81.98573592 1.95578276 85.35384119 1.93800354 88.72200012 C1.17355421 104.00628724 1.17355421 104.00628724 3 119 C4.95297186 120.37398434 4.95297186 120.37398434 7 121 C4.69 121 2.38 121 0 121 C0 81.07 0 41.14 0 0 Z " fill="#6537C0" transform="translate(1265,735)"/>
<path d="M0 0 C2.12563103 0.11376617 4.2505261 0.24135631 6.375 0.375 C8.15003906 0.47941406 8.15003906 0.47941406 9.9609375 0.5859375 C13 1 13 1 15 3 C15.66 3.33 16.32 3.66 17 4 C17 4.99 17 5.98 17 7 C17.66 6.67 18.32 6.34 19 6 C20.99960012 5.960008 23.00047242 5.95653201 25 6 C25.33 6.99 25.66 7.98 26 9 C39.365 9.495 39.365 9.495 53 10 C53 10.33 53 10.66 53 11 C33.02381086 11.439359 17.21069052 10.55182883 -1 2 C-0.67 1.34 -0.34 0.68 0 0 Z " fill="#6D48D0" transform="translate(1002,849)"/>
<path d="M0 0 C14.18128909 1.29421473 14.18128909 1.29421473 16.8125 3.5625 C17.204375 4.036875 17.59625 4.51125 18 5 C18.66 4.67 19.32 4.34 20 4 C19.67 5.32 19.34 6.64 19 8 C19.80824219 8.06058594 20.61648438 8.12117187 21.44921875 8.18359375 C22.51785156 8.26738281 23.58648438 8.35117187 24.6875 8.4375 C25.74324219 8.51871094 26.79898437 8.59992187 27.88671875 8.68359375 C31 9 31 9 33.37695312 9.51367188 C36.01494801 10.00277145 38.40247098 10.11409527 41.08203125 10.09765625 C42.01337891 10.09443359 42.94472656 10.09121094 43.90429688 10.08789062 C44.86400391 10.07951172 45.82371094 10.07113281 46.8125 10.0625 C47.79154297 10.05798828 48.77058594 10.05347656 49.77929688 10.04882812 C52.18626111 10.03708684 54.59309857 10.02066419 57 10 C52.07090858 12.88944259 47.06802056 12.34159674 41.5 12.3125 C40.41299805 12.30758545 39.32599609 12.3026709 38.20605469 12.29760742 C30.75763013 12.18859791 24.01991196 11.65220062 17 9 C15.94425781 8.61328125 14.88851563 8.2265625 13.80078125 7.828125 C8.52088282 5.76457 4.33639193 3.70678875 0 0 Z " fill="#8566D6" transform="translate(1430,848)"/>
<path d="M0 0 C0.845625 0.35707031 1.69125 0.71414063 2.5625 1.08203125 C8.7665996 3.8957495 8.7665996 3.8957495 10.25 5.75 C14.88415493 9.55662727 24.67585451 8.4918075 30.5 8.75 C31.4178125 8.79318359 32.335625 8.83636719 33.28125 8.88085938 C35.52072061 8.98583456 37.76028092 9.08799248 40 9.1875 C40 9.5175 40 9.8475 40 10.1875 C21.89218511 10.89696833 6.05630479 10.41133466 -10 1.1875 C-9 -0.8125 -9 -0.8125 -7.25 -1.55078125 C-4.33713592 -1.88960398 -2.68062161 -1.1564267 0 0 Z " fill="#896AD7" transform="translate(782,849.8125)"/>
<path d="M0 0 C11.22 0 22.44 0 34 0 C34.495 0.99 34.495 0.99 35 2 C34.0625 4.125 34.0625 4.125 33 6 C32.505 5.01 32.505 5.01 32 4 C21.77 3.67 11.54 3.34 1 3 C0.67 2.01 0.34 1.02 0 0 Z " fill="#FDEEDC" transform="translate(118,808)"/>
<path d="M0 0 C0 0.66 0 1.32 0 2 C1.093125 1.938125 2.18625 1.87625 3.3125 1.8125 C8.00179067 1.7873788 12.12199891 2.98498133 16.58203125 4.34375 C19.06496987 5.13096494 19.06496987 5.13096494 22 5 C23.33981486 5.3062434 24.67511887 5.63451555 26 6 C26 6.66 26 7.32 26 8 C27.32 8.66 28.64 9.32 30 10 C26.93787138 11.53106431 24.74390449 10.41508597 21.453125 9.63671875 C20.80430359 9.48467484 20.15548218 9.33263092 19.48699951 9.17597961 C18.1110033 8.85211075 16.73579432 8.52488189 15.36132812 8.19458008 C13.27382494 7.69322206 11.18411993 7.20214191 9.09375 6.71289062 C3.31369442 5.34655639 -2.38383047 3.9540796 -8 2 C-8 1.67 -8 1.34 -8 1 C-2.25 0 -2.25 0 0 0 Z " fill="#7351D4" transform="translate(1023,797)"/>
<path d="M0 0 C0.556875 0.474375 1.11375 0.94875 1.6875 1.4375 C4.25381722 3.17149812 5.97967821 3.43807967 9 4 C12.75 5.375 12.75 5.375 16 7 C16.33 7.99 16.66 8.98 17 10 C18.98 10 20.96 10 23 10 C23 10.99 23 11.98 23 13 C13.9377592 12.36775064 4.84773499 8.96949388 -2 3 C-1.34 3 -0.68 3 0 3 C0 2.01 0 1.02 0 0 Z " fill="#704DD5" transform="translate(1124,885)"/>
<path d="M0 0 C2.31 0.66 4.62 1.32 7 2 C3.8145565 5.50643819 0.36539702 6.64987226 -4 8.25 C-4.72445312 8.53101563 -5.44890625 8.81203125 -6.1953125 9.1015625 C-11.62475501 11.12508166 -11.62475501 11.12508166 -15 10 C-14.75 8.125 -14.75 8.125 -14 6 C-11.41847698 4.27898465 -10.15081975 4 -7 4 C-4.65789079 3.36485174 -2.32315031 2.7013284 0 2 C0 1.34 0 0.68 0 0 Z " fill="#714CC8" transform="translate(615,847)"/>
<path d="M0 0 C1.20785156 -0.00257813 2.41570312 -0.00515625 3.66015625 -0.0078125 C6.9375 0.125 6.9375 0.125 10.9375 1.125 C10.6075 11.355 10.2775 21.585 9.9375 32.125 C9.6075 32.125 9.2775 32.125 8.9375 32.125 C8.74121586 28.33373402 8.55696104 24.54197828 8.375 20.75 C8.31892578 19.66976562 8.26285156 18.58953125 8.20507812 17.4765625 C8.15673828 16.4453125 8.10839844 15.4140625 8.05859375 14.3515625 C8.0114624 13.39846191 7.96433105 12.44536133 7.91577148 11.46337891 C7.9375 9.125 7.9375 9.125 8.9375 7.125 C8.9771713 5.45880554 8.98134447 3.79108987 8.9375 2.125 C7.514375 2.6509375 7.514375 2.6509375 6.0625 3.1875 C2.9375 4.125 2.9375 4.125 0.9375 3.125 C0.9375 2.465 0.9375 1.805 0.9375 1.125 C0.421875 1.455 -0.09375 1.785 -0.625 2.125 C-3.8983849 3.46792714 -6.55889145 3.38452656 -10.0625 3.125 C-10.7225 2.465 -11.3825 1.805 -12.0625 1.125 C-7.99326448 0.1520898 -4.17831478 -0.00893757 0 0 Z " fill="#7E5DC7" transform="translate(389.0625,724.875)"/>
<path d="M0 0 C0.99 0 1.98 0 3 0 C3 0.66 3 1.32 3 2 C3.99 1.67 4.98 1.34 6 1 C8.1875 1.9375 8.1875 1.9375 10 3 C10 3.66 10 4.32 10 5 C10.99 4.67 11.98 4.34 13 4 C15.6875 5.25 15.6875 5.25 18 7 C18 7.99 18 8.98 18 10 C21.63 9.67 25.26 9.34 29 9 C29 9.66 29 10.32 29 11 C29.5775 10.79375 30.155 10.5875 30.75 10.375 C33.53731028 9.91044829 34.58030999 10.66815382 37 12 C23.53957147 12.48457543 13.12771658 11.2173907 2 3 C1.34 2.01 0.68 1.02 0 0 Z " fill="#7050D5" transform="translate(675,848)"/>
<path d="M0 0 C2.06242617 -0.02717692 4.12495703 -0.0464758 6.1875 -0.0625 C7.33605469 -0.07410156 8.48460937 -0.08570313 9.66796875 -0.09765625 C12.60470675 -0.01158538 15.14272308 0.38422593 18 1 C18.02920143 5.18748519 18.04686646 9.37494391 18.0625 13.5625 C18.07087891 14.74392578 18.07925781 15.92535156 18.08789062 17.14257812 C18.10392999 22.86863072 18.0510705 28.36394482 17 34 C15.515 33.505 15.515 33.505 14 33 C14 31 14 29 14 27 C14.66 27 15.32 27 16 27 C15.91621094 26.03320312 15.83242188 25.06640625 15.74609375 24.0703125 C15.15519118 16.51573539 14.95546301 9.54387824 16 2 C10.72 1.67 5.44 1.34 0 1 C0 0.67 0 0.34 0 0 Z " fill="#987CD6" transform="translate(955,725)"/>
<path d="M0 0 C8.39670387 1.20209222 8.39670387 1.20209222 10.9375 4.5625 C13.46796923 7.55305454 14.45728373 7.45179412 18.25 7.8125 C19.83230623 7.89710308 21.41578262 7.96674353 23 8 C23.33 8.99 23.66 9.98 24 11 C24.66 11 25.32 11 26 11 C26 11.99 26 12.98 26 14 C16.27048511 11.45376525 7.38629405 7.99754173 0 1 C0 0.67 0 0.34 0 0 Z " fill="#7757D7" transform="translate(533,786)"/>
<path d="M0 0 C0.33 0 0.66 0 1 0 C1.1440622 4.41075559 1.28641283 8.82156228 1.42724609 13.23242188 C1.47528963 14.72983251 1.52378338 16.22722877 1.57275391 17.72460938 C1.64346667 19.88928573 1.71250632 22.05401032 1.78125 24.21875 C1.82314453 25.51748047 1.86503906 26.81621094 1.90820312 28.15429688 C1.9728013 30.86054788 1.99783143 33.54680526 1.97851562 36.25195312 C1.9109566 40.01420831 1.9109566 40.01420831 2.5625 43.75 C2.95412379 46.6592053 2.97657578 48.28728951 2 51 C2.99 51.33 3.98 51.66 5 52 C5 52.66 5 53.32 5 54 C3.35 54 1.7 54 0 54 C0 36.18 0 18.36 0 0 Z " fill="#6536C2" transform="translate(1353,802)"/>
<path d="M0 0 C0.87140625 0.00064453 1.7428125 0.00128906 2.640625 0.00195312 C6.79753163 0.03046849 10.69843563 0.14112491 14.75 1.1875 C11.49358556 3.12602436 9.07870564 3.43245945 5.3125 3.375 C4.38566406 3.36855469 3.45882812 3.36210938 2.50390625 3.35546875 C-0.25 3.1875 -0.25 3.1875 -2.90625 2.61328125 C-6.09089961 2.03473657 -8.22430792 3.15747716 -11.25 4.1875 C-13.5625 3.75 -13.5625 3.75 -15.25 3.1875 C-15.58 3.5175 -15.91 3.8475 -16.25 4.1875 C-18.24958364 4.22830783 -20.25045254 4.23004356 -22.25 4.1875 C-15.62100132 -0.23183245 -7.73909049 -0.11072494 0 0 Z " fill="#7A5DC9" transform="translate(808.25,724.8125)"/>
<path d="M0 0 C0.33 0.99 0.66 1.98 1 3 C14.365 3.495 14.365 3.495 28 4 C28 4.33 28 4.66 28 5 C-0.15153143 5.61916858 -0.15153143 5.61916858 -12 2 C-12 1.67 -12 1.34 -12 1 C-7.93631321 0.22596442 -4.13574827 -0.0984702 0 0 Z " fill="#8867D5" transform="translate(1027,855)"/>
<path d="M0 0 C0 0.66 0 1.32 0 2 C0.66 2.33 1.32 2.66 2 3 C-3.31531689 4.77410051 -7.85618805 5.2577668 -13.4375 5.125 C-14.16904297 5.11597656 -14.90058594 5.10695313 -15.65429688 5.09765625 C-17.43634298 5.07436153 -19.21821759 5.0385019 -21 5 C-19 2 -19 2 -15.41015625 1.26953125 C-13.96245802 1.10335836 -12.51305373 0.95155924 -11.0625 0.8125 C-9.96905273 0.6897168 -9.96905273 0.6897168 -8.85351562 0.56445312 C-5.88874776 0.24107331 -2.98388269 0 0 0 Z " fill="#FCEBE0" transform="translate(82,807)"/>
<path d="M0 0 C0 0.99 0 1.98 0 3 C0.86625 2.814375 1.7325 2.62875 2.625 2.4375 C6 2 6 2 8.46875 2.46875 C13.60470234 3.2414154 18.6898389 3.10400683 23.875 3.0625 C24.94492187 3.05798828 26.01484375 3.05347656 27.1171875 3.04882812 C29.74484986 3.03709749 32.37239538 3.02068228 35 3 C35 3.33 35 3.66 35 4 C29.82065543 5.04929995 24.82339514 5.19252042 19.5625 5.1875 C18.2487439 5.1862915 18.2487439 5.1862915 16.90844727 5.18505859 C-2.99969437 5.00020375 -2.99969437 5.00020375 -9 1 C-5.94152152 0.45627049 -3.11227195 0 0 0 Z " fill="#8868D4" transform="translate(563,855)"/>
<path d="M0 0 C0.66 0.33 1.32 0.66 2 1 C-1.24218905 5.26116275 -3.03397331 7.01358932 -8 9 C-10.62761497 11.81530176 -12.73882473 14.55503472 -14.6875 17.875 C-15.120625 18.57625 -15.55375 19.2775 -16 20 C-16.66 20 -17.32 20 -18 20 C-16.20425231 12.01889916 -10.65272027 6.90733974 -4.0625 2.5 C-2.71579742 1.65465748 -1.3642621 0.81670112 0 0 Z " fill="#7759C2" transform="translate(1006,731)"/>
<path d="M0 0 C1.98 0.66 3.96 1.32 6 2 C6 2.66 6 3.32 6 4 C6.66 4 7.32 4 8 4 C8 4.66 8 5.32 8 6 C10.31 6.33 12.62 6.66 15 7 C14.67 7.66 14.34 8.32 14 9 C14.27942455 10.67654729 14.60828247 12.34608154 15 14 C11.10667264 12.36851044 8.35280925 9.82372058 5.25 7 C4.74339844 6.54882812 4.23679687 6.09765625 3.71484375 5.6328125 C2.43454183 4.46639188 1.21208271 3.23716029 0 2 C0 1.34 0 0.68 0 0 Z " fill="#724CDF" transform="translate(417,842)"/>
<path d="M0 0 C2.25 0 2.25 0 5 1 C8.36639255 5.54020048 9.53874704 10.46496444 10 16 C9.34 16 8.68 16 8 16 C7.67 16.99 7.34 17.98 7 19 C6.74476562 17.78763672 6.74476562 17.78763672 6.484375 16.55078125 C4.70237713 8.57325506 4.70237713 8.57325506 0 2 C0 1.34 0 0.68 0 0 Z " fill="#FAEDDE" transform="translate(86,733)"/>
<path d="M0 0 C1.14949588 0.78633922 2.29448989 1.57926258 3.4375 2.375 C4.39462891 3.03628906 4.39462891 3.03628906 5.37109375 3.7109375 C7 5 7 5 8 7 C8.66 7 9.32 7 10 7 C10.2475 7.61875 10.495 8.2375 10.75 8.875 C12.20628639 11.35068687 13.37812506 11.95125002 16 13 C10.3208607 12.61497361 7.11552531 12.22675572 3 8 C1.2285744 5.71965655 -0.38538102 3.39886248 -2 1 C-1.34 0.67 -0.68 0.34 0 0 Z " fill="#6949CF" transform="translate(1421,836)"/>
<path d="M0 0 C6.93 0 13.86 0 21 0 C21 0.99 21 1.98 21 3 C17.87517438 3.08687496 14.75065754 3.14034568 11.625 3.1875 C10.29082031 3.22520508 10.29082031 3.22520508 8.9296875 3.26367188 C7.65351563 3.27817383 7.65351563 3.27817383 6.3515625 3.29296875 C5.17327881 3.31653442 5.17327881 3.31653442 3.97119141 3.34057617 C3.32069824 3.22818604 2.67020508 3.1157959 2 3 C1.34 2.01 0.68 1.02 0 0 Z " fill="#FBE5CD" transform="translate(205,808)"/>
<path d="M0 0 C5.94 0 11.88 0 18 0 C18 0.33 18 0.66 18 1 C16.56496445 1.36402369 15.12683494 1.71586591 13.6875 2.0625 C12.88699219 2.25972656 12.08648438 2.45695313 11.26171875 2.66015625 C9 3 9 3 6 2 C5.5875 2.804375 5.175 3.60875 4.75 4.4375 C3 7 3 7 0.8125 7.8125 C0.214375 7.874375 -0.38375 7.93625 -1 8 C-0.67 5.36 -0.34 2.72 0 0 Z " fill="#7252C1" transform="translate(677,700)"/>
<path d="M0 0 C2.67371119 1.21958756 4.75412136 2.18298261 7 4 C7.9375 6.75 7.9375 6.75 8 9 C9.65 8.67 11.3 8.34 13 8 C13.33 8.99 13.66 9.98 14 11 C12.25 11.6640625 12.25 11.6640625 10 12 C5.106956 9.45791073 1.15743412 5.47303167 -2 1 C-1.34 0.67 -0.68 0.34 0 0 Z " fill="#6A4BD1" transform="translate(761,838)"/>
<path d="M0 0 C0 8.25 0 16.5 0 25 C-0.33 25 -0.66 25 -1 25 C-1.06058594 24.32195313 -1.12117187 23.64390625 -1.18359375 22.9453125 C-1.75248188 16.62627825 -2.35649093 10.31186556 -3 4 C-4.65 3.67 -6.3 3.34 -8 3 C-5.48696401 0.48696401 -3.51117809 0 0 0 Z M-3 2 C-2 4 -2 4 -2 4 Z " fill="#7B52C8" transform="translate(730,827)"/>
<path d="M0 0 C0 1.32 0 2.64 0 4 C-2.10388569 4.05402274 -4.20816714 4.09280256 -6.3125 4.125 C-8.07013672 4.15980469 -8.07013672 4.15980469 -9.86328125 4.1953125 C-13 4 -13 4 -16 2 C-14.38334816 0.38334816 -12.47793462 0.64513296 -10.25 0.4375 C-8.95835937 0.31181641 -8.95835937 0.31181641 -7.640625 0.18359375 C-5.08353681 0.00580803 -2.56226184 -0.03225869 0 0 Z " fill="#F8F1F4" transform="translate(157,901)"/>
<path d="M0 0 C4.49472607 -0.08989452 8.57857987 0.26309664 13 1 C15.33302989 1.03762951 17.66713319 1.04665734 20 1 C20 1.66 20 2.32 20 3 C22.31 3.33 24.62 3.66 27 4 C26.67 4.66 26.34 5.32 26 6 C25.46375 5.89042969 24.9275 5.78085937 24.375 5.66796875 C16.26577686 4.02745157 8.13362385 2.51370171 0 1 C0 0.67 0 0.34 0 0 Z " fill="#7E60D9" transform="translate(567,802)"/>
<path d="M0 0 C2.31 0 4.62 0 7 0 C7.495 0.99 7.495 0.99 8 2 C7.0625 4.125 7.0625 4.125 6 6 C5.67 5.34 5.34 4.68 5 4 C-5.23 3.67 -15.46 3.34 -26 3 C-26 2.67 -26 2.34 -26 2 C-17.42 1.67 -8.84 1.34 0 1 C0 0.67 0 0.34 0 0 Z " fill="#FDDCB6" transform="translate(145,808)"/>
<path d="M0 0 C2.66709069 0.16750414 2.66709069 0.16750414 5 0 C5.33 0.66 5.66 1.32 6 2 C6.66 2.33 7.32 2.66 8 3 C3.69577494 4.31052767 0.0629466 3.45785552 -4.25 2.5625 C-5.36761719 2.34110352 -5.36761719 2.34110352 -6.5078125 2.11523438 C-8.34007665 1.7511306 -10.17026053 1.37658591 -12 1 C-12 0.34 -12 -0.32 -12 -1 C-3.98473282 -2.33587786 -3.98473282 -2.33587786 0 0 Z " fill="#6B46CE" transform="translate(573,800)"/>
<path d="M0 0 C5.42039575 -0.40652968 9.07015675 0.96006486 14 3 C14 3.99 14 4.98 14 6 C14.33 6.66 14.66 7.32 15 8 C9.3723345 6.34921812 4.67132966 4.59333051 0 1 C0 0.67 0 0.34 0 0 Z " fill="#7457D7" transform="translate(999,790)"/>
<path d="M0 0 C3.89581756 -0.02911003 7.791607 -0.04683587 11.6875 -0.0625 C12.79029297 -0.07087891 13.89308594 -0.07925781 15.02929688 -0.08789062 C16.6293457 -0.09272461 16.6293457 -0.09272461 18.26171875 -0.09765625 C19.24100342 -0.10289307 20.22028809 -0.10812988 21.22924805 -0.11352539 C23.92469572 -0.00308543 26.37545639 0.39465834 29 1 C25.49947109 3.33368594 24.00385663 3.24221979 19.875 3.1875 C18.79992187 3.18105469 17.72484375 3.17460938 16.6171875 3.16796875 C14 3 14 3 13 2 C10.81707226 1.76518307 8.62796826 1.58636677 6.4375 1.4375 C5.23996094 1.35371094 4.04242187 1.26992188 2.80859375 1.18359375 C1.88175781 1.12300781 0.95492187 1.06242188 0 1 C0 0.67 0 0.34 0 0 Z " fill="#8061CB" transform="translate(566,725)"/>
<path d="M0 0 C1.32 0.33 2.64 0.66 4 1 C2.35 4.3 0.7 7.6 -1 11 C-1.66 11 -2.32 11 -3 11 C-3.66 8.69 -4.32 6.38 -5 4 C-4.01 3.01 -3.02 2.02 -2 1 C-2 1.66 -2 2.32 -2 3 C-1.34 3 -0.68 3 0 3 C0 2.01 0 1.02 0 0 Z " fill="#F8F2ED" transform="translate(204,809)"/>
<path d="M0 0 C3.85415052 -0.02923559 7.70827215 -0.04687777 11.5625 -0.0625 C12.64853516 -0.07087891 13.73457031 -0.07925781 14.85351562 -0.08789062 C20.34832611 -0.10459218 25.58961935 0.01417741 31 1 C31 1.33 31 1.66 31 2 C29.27185839 2.19672365 27.54240803 2.38196799 25.8125 2.5625 C24.84957031 2.66691406 23.88664062 2.77132812 22.89453125 2.87890625 C20.00908364 2.99961998 17.81105382 2.60236868 15 2 C12.3931873 1.78118981 9.79779811 1.58987147 7.1875 1.4375 C6.14819336 1.37272461 6.14819336 1.37272461 5.08789062 1.30664062 C3.39211314 1.20138547 1.69607948 1.10027137 0 1 C0 0.67 0 0.34 0 0 Z " fill="#8364CD" transform="translate(1026,725)"/>
<path d="M0 0 C0 0.99 0 1.98 0 3 C5.445 2.505 5.445 2.505 11 2 C11 2.66 11 3.32 11 4 C11.5775 3.79375 12.155 3.5875 12.75 3.375 C15.53731028 2.91044829 16.58030999 3.66815382 19 5 C10.06175331 5.32177688 2.43752585 5.33530434 -6 2 C-2.25 0 -2.25 0 0 0 Z " fill="#876BD7" transform="translate(693,855)"/>
<path d="M0 0 C5.875 0.875 5.875 0.875 7 2 C7.04063832 3.66617115 7.042721 5.33388095 7 7 C5.02 7.33 3.04 7.66 1 8 C0.67 5.36 0.34 2.72 0 0 Z " fill="#7858D4" transform="translate(1494,767)"/>
<path d="M0 0 C6.34845956 0.79355745 12.60119825 2.12454791 17 7 C14 8 14 8 10.64453125 6.56640625 C9.3619696 5.90851193 8.08475943 5.24010257 6.8125 4.5625 C6.15830078 4.22412109 5.50410156 3.88574219 4.83007812 3.53710938 C3.21540701 2.70030902 1.60707237 1.85130254 0 1 C0 0.67 0 0.34 0 0 Z " fill="#7159E4" transform="translate(537,848)"/>
<path d="M0 0 C0.66 0.99 1.32 1.98 2 3 C1.01 4.485 1.01 4.485 0 6 C0.66 6.33 1.32 6.66 2 7 C1.625 8.9375 1.625 8.9375 1 11 C0.01 11.495 0.01 11.495 -1 12 C-0.67 12.66 -0.34 13.32 0 14 C-0.66 14 -1.32 14 -2 14 C-2.33 14.99 -2.66 15.98 -3 17 C-4.56393356 13.02623171 -3.36145292 10.18622097 -2.0625 6.25 C-1.68222656 5.07953125 -1.30195312 3.9090625 -0.91015625 2.703125 C-0.60980469 1.81109375 -0.30945313 0.9190625 0 0 Z " fill="#754EC5" transform="translate(926,749)"/>
<path d="M0 0 C2 1 2 1 2 1 Z M-4 1 C-2.68 1 -1.36 1 0 1 C-0.375 3.9375 -0.375 3.9375 -1 7 C-1.99 7.495 -1.99 7.495 -3 8 C-3.65213292 10.02463255 -3.65213292 10.02463255 -4 12 C-5.32 12.33 -6.64 12.66 -8 13 C-6.68 9.04 -5.36 5.08 -4 1 Z " fill="#7352C5" transform="translate(1201,794)"/>
<path d="M0 0 C2.25 1.875 2.25 1.875 4 4 C4 4.66 4 5.32 4 6 C4.66 6 5.32 6 6 6 C5.67 7.32 5.34 8.64 5 10 C4.154375 9.236875 3.30875 8.47375 2.4375 7.6875 C-0.82003668 4.9508582 -4.03723128 3.50585211 -8 2 C-4.91190305 0.23537317 -3.76687864 0 0 0 Z " fill="#775AD2" transform="translate(823,749)"/>
<path d="M0 0 C0.54140625 0.24621094 1.0828125 0.49242187 1.640625 0.74609375 C-0.339375 3.71609375 -0.339375 3.71609375 -2.359375 6.74609375 C-3.679375 6.08609375 -4.999375 5.42609375 -6.359375 4.74609375 C-9.329375 7.22109375 -9.329375 7.22109375 -12.359375 9.74609375 C-12.689375 9.08609375 -13.019375 8.42609375 -13.359375 7.74609375 C-11.62132159 6.37662753 -9.86846267 5.02593421 -8.109375 3.68359375 C-7.13484375 2.92949219 -6.1603125 2.17539062 -5.15625 1.3984375 C-2.359375 -0.25390625 -2.359375 -0.25390625 0 0 Z " fill="#7354C0" transform="translate(1438.359375,733.25390625)"/>
<path d="M0 0 C0.33 0.99 0.66 1.98 1 3 C-4.05980165 7.75221493 -8.72784918 11.72730952 -15.9375 12.1875 C-16.618125 12.125625 -17.29875 12.06375 -18 12 C-14.13711587 9.42474391 -10.01234974 7.59891863 -5.8125 5.6328125 C-3.01898172 4.01101994 -1.68911375 2.70961998 0 0 Z " fill="#805CC1" transform="translate(1196,860)"/>
<path d="M0 0 C0 0.66 0 1.32 0 2 C-1.11375 2.5775 -2.2275 3.155 -3.375 3.75 C-6.33192143 5.42260202 -7.92315721 6.64982242 -9 10 C-11 7 -11 7 -10.87109375 4.921875 C-10 3 -10 3 -8.22265625 1.953125 C-7.15337891 1.60507812 -7.15337891 1.60507812 -6.0625 1.25 C-5.35222656 1.00765625 -4.64195312 0.7653125 -3.91015625 0.515625 C-2 0 -2 0 0 0 Z " fill="#7F61C8" transform="translate(994,819)"/>
<path d="M0 0 C3.3 0.66 6.6 1.32 10 2 C7.00084818 3.49957591 4.16379181 4.91765017 1 6 C0.34 5.67 -0.32 5.34 -1 5 C-0.67 3.35 -0.34 1.7 0 0 Z " fill="#8060C9" transform="translate(1501,809)"/>
<path d="M0 0 C2.5 0.75 2.5 0.75 5.5 2.75 C5.83 4.4 6.16 6.05 6.5 7.75 C2.54 5.77 -1.42 3.79 -5.5 1.75 C-2.5 -0.25 -2.5 -0.25 0 0 Z " fill="#7151CE" transform="translate(1060.5,807.25)"/>
<path d="M0 0 C5.28 0 10.56 0 16 0 C16 0.66 16 1.32 16 2 C17.32 2.66 18.64 3.32 20 4 C17.47322847 5.26338576 16.58286386 4.85376414 13.8671875 4.22265625 C13.06152344 4.03896484 12.25585938 3.85527344 11.42578125 3.66601562 C10.58402344 3.46685547 9.74226563 3.26769531 8.875 3.0625 C8.02550781 2.86720703 7.17601562 2.67191406 6.30078125 2.47070312 C4.19909742 1.98660741 2.09935649 1.49409097 0 1 C0 0.67 0 0.34 0 0 Z " fill="#8063D9" transform="translate(1033,803)"/>
<path d="M0 0 C0.99 0.33 1.98 0.66 3 1 C3.33 4.63 3.66 8.26 4 12 C3.01 11.67 2.02 11.34 1 11 C0.67 7.37 0.34 3.74 0 0 Z " fill="#F9F6EE" transform="translate(94,749)"/>
<path d="M0 0 C1.62992692 0.39695637 3.25392235 0.81832493 4.875 1.25 C6.23238281 1.59804688 6.23238281 1.59804688 7.6171875 1.953125 C10 3 10 3 11.3203125 5.109375 C11.54460938 5.73328125 11.76890625 6.3571875 12 7 C2.40546697 4.10933941 2.40546697 4.10933941 -1 1 C-0.67 0.67 -0.34 0.34 0 0 Z " fill="#7153DD" transform="translate(773,849)"/>
<path d="M0 0 C3.0289346 0.52018659 5.53326534 1.65885376 8.25 3.0625 C8.95640625 3.42472656 9.6628125 3.78695312 10.390625 4.16015625 C10.92171875 4.43730469 11.4528125 4.71445312 12 5 C12 5.66 12 6.32 12 7 C2.40546697 4.10933941 2.40546697 4.10933941 -1 1 C-0.67 0.67 -0.34 0.34 0 0 Z " fill="#7151DF" transform="translate(1002,849)"/>
<path d="M0 0 C2.03833424 1.2739589 4.03852126 2.61061923 6 4 C6 4.66 6 5.32 6 6 C6.99 6.33 7.98 6.66 9 7 C4.02693484 6.50269348 0.36200187 5.44697666 -4 3 C-2.68 2.01 -1.36 1.02 0 0 Z " fill="#7F61D8" transform="translate(1145,838)"/>
<path d="M0 0 C6.2054142 0.48320848 11.99945246 1.33318124 18 3 C17.34 3.66 16.68 4.32 16 5 C9.42307692 4.42307692 9.42307692 4.42307692 8 3 C7.030625 3.04125 6.06125 3.0825 5.0625 3.125 C4.051875 3.08375 3.04125 3.0425 2 3 C1.34 2.01 0.68 1.02 0 0 Z " fill="#8163C8" transform="translate(577,779)"/>
<path d="M0 0 C0.99 0 1.98 0 3 0 C3 0.99 3 1.98 3 3 C4.65 3 6.3 3 8 3 C8 3.33 8 3.66 8 4 C4.04 4.66 0.08 5.32 -4 6 C-4 5.34 -4 4.68 -4 4 C-3.34 4 -2.68 4 -2 4 C-1.34 2.68 -0.68 1.36 0 0 Z " fill="#815FDB" transform="translate(487,754)"/>
<path d="M0 0 C8.35010941 1.33041575 8.35010941 1.33041575 11.0625 4.125 C11.371875 4.74375 11.68125 5.3625 12 6 C9.04876854 6.35133708 6.8502099 6.52850886 4.265625 4.921875 C2.77831883 3.6895356 1.38214043 2.34923232 0 1 C0 0.67 0 0.34 0 0 Z " fill="#6F52CF" transform="translate(533,786)"/>
<path d="M0 0 C0.66 0 1.32 0 2 0 C2.24234375 0.66386719 2.4846875 1.32773437 2.734375 2.01171875 C4.61153659 6.95731756 6.33322093 11.07130813 10 15 C7.64840946 14.60890392 6.29704158 14.28343051 4.55078125 12.6171875 C1.51517584 8.34627263 0.32095043 5.2421903 0 0 Z " fill="#8966CB" transform="translate(545,814)"/>
<path d="M0 0 C2 1 2 1 3.125 3.8125 C4 7 4 7 4 11 C3.34 11 2.68 11 2 11 C-1.07692308 5.70769231 -1.07692308 5.70769231 -0.6875 2.125 C-0.460625 1.42375 -0.23375 0.7225 0 0 Z " fill="#FDF9F1" transform="translate(161,793)"/>
<path d="M0 0 C1.98 0.99 3.96 1.98 6 3 C6 3.66 6 4.32 6 5 C7.65 5 9.3 5 11 5 C11 5.66 11 6.32 11 7 C9.234375 7.67578125 9.234375 7.67578125 7 8 C5.078125 6.85546875 5.078125 6.85546875 3.25 5.1875 C2.63640625 4.64480469 2.0228125 4.10210938 1.390625 3.54296875 C0 2 0 2 0 0 Z " fill="#6648D5" transform="translate(993,842)"/>
<path d="M0 0 C0.33 0 0.66 0 1 0 C1 6.27 1 12.54 1 19 C0.01 18.67 -0.98 18.34 -2 18 C-2 16 -2 14 -2 12 C-1.34 12 -0.68 12 0 12 C0 8.04 0 4.08 0 0 Z " fill="#8563CD" transform="translate(971,740)"/>
<path d="M0 0 C0.99 0.66 1.98 1.32 3 2 C1.35 4.64 -0.3 7.28 -2 10 C-2.66 9.67 -3.32 9.34 -4 9 C-3.35455571 5.51460083 -1.89865603 2.97180943 0 0 Z " fill="#FF9B33" transform="translate(39,740)"/>
<path d="M0 0 C0 0.33 0 0.66 0 1 C-1.98 1 -3.96 1 -6 1 C-6 1.66 -6 2.32 -6 3 C-8.31 3.33 -10.62 3.66 -13 4 C-13.66 3.01 -14.32 2.02 -15 1 C-9.94997778 -0.03590199 -5.12583611 -0.10251672 0 0 Z " fill="#7D62CB" transform="translate(1468,725)"/>
<path d="M0 0 C-1.1875 1.5625 -1.1875 1.5625 -3 3 C-5.6875 2.6875 -5.6875 2.6875 -8 2 C-8 2.66 -8 3.32 -8 4 C-9.65 3.67 -11.3 3.34 -13 3 C-8.8341563 0.22277086 -4.9360889 -1.89849573 0 0 Z " fill="#825BD2" transform="translate(437,824)"/>
<path d="M0 0 C1.32 0.66 2.64 1.32 4 2 C3.34 3.98 2.68 5.96 2 8 C1.34 8 0.68 8 0 8 C-0.38063221 5.6739143 -0.71269945 3.33944736 -1 1 C-0.67 0.67 -0.34 0.34 0 0 Z " fill="#FF981F" transform="translate(179,807)"/>
<path d="M0 0 C0 0.66 0 1.32 0 2 C2.97 2.495 2.97 2.495 6 3 C6 3.66 6 4.32 6 5 C1.03083364 4.48594831 -3.29026351 3.76615118 -8 2 C-8 1.67 -8 1.34 -8 1 C-2.25 0 -2.25 0 0 0 Z " fill="#8364DA" transform="translate(1023,797)"/>
<path d="M0 0 C1.485 0.99 1.485 0.99 3 2 C3 2.66 3 3.32 3 4 C4.65 4.33 6.3 4.66 8 5 C7.67 5.66 7.34 6.32 7 7 C3.31245243 6.50168276 1.39509338 5.89932357 -1 3 C-0.67 2.01 -0.34 1.02 0 0 Z " fill="#6A4FD0" transform="translate(1136,833)"/>
<path d="M0 0 C0.99 0.33 1.98 0.66 3 1 C3.73046875 2.84765625 3.73046875 2.84765625 4.1875 5.0625 C4.34605469 5.79597656 4.50460937 6.52945313 4.66796875 7.28515625 C4.83232422 8.13400391 4.83232422 8.13400391 5 9 C4.01 9.33 3.02 9.66 2 10 C1.34 6.7 0.68 3.4 0 0 Z " fill="#8463D1" transform="translate(522,823)"/>
<path d="M0 0 C0.33 0 0.66 0 1 0 C1.33872513 1.41538717 1.67074624 2.83237963 2 4.25 C2.185625 5.03890625 2.37125 5.8278125 2.5625 6.640625 C3 9 3 9 3 13 C2.01 12.67 1.02 12.34 0 12 C-1.16063604 7.74433453 -0.76173392 4.3164922 0 0 Z " fill="#FCEDDB" transform="translate(101,773)"/>
<path d="M0 0 C3 2 3 2 3.6875 4.625 C3.790625 5.40875 3.89375 6.1925 4 7 C2.68 7.33 1.36 7.66 0 8 C-0.66 5.69 -1.32 3.38 -2 1 C-1.34 0.67 -0.68 0.34 0 0 Z " fill="#7754D1" transform="translate(608,762)"/>
<path d="M0 0 C6.75 0.875 6.75 0.875 9 2 C9 2.66 9 3.32 9 4 C9.66 4 10.32 4 11 4 C11 4.66 11 5.32 11 6 C6.49197399 4.74194623 3.5087188 3.09592835 0 0 Z " fill="#6F55DC" transform="translate(1430,848)"/>
<path d="M0 0 C0.99 0 1.98 0 3 0 C3 0.66 3 1.32 3 2 C5.475 2.99 5.475 2.99 8 4 C8 5.65 8 7.3 8 9 C4.36905358 6.35039045 2.10148204 3.98175544 0 0 Z " fill="#7059CE" transform="translate(989,780)"/>
<path d="M0 0 C0 3 0 3 -2.375 5.6875 C-5 8 -5 8 -7 8 C-7 9.65 -7 11.3 -7 13 C-7.33 13 -7.66 13 -8 13 C-8.5 10.4375 -8.5 10.4375 -8 7 C-5.58004962 4.34123873 -2.86556402 2.16196571 0 0 Z " fill="#FFA147" transform="translate(100,825)"/>
<path d="M0 0 C0.33 0.99 0.66 1.98 1 3 C-2.375 3.1875 -2.375 3.1875 -6 3 C-6.66 2.01 -7.32 1.02 -8 0 C-4.71023192 -1.09658936 -3.28696233 -0.79953138 0 0 Z " fill="#6D48CF" transform="translate(1020,795)"/>
<path d="M0 0 C0.99 0 1.98 0 3 0 C3.33 2.31 3.66 4.62 4 7 C3.34 7 2.68 7 2 7 C1.67 7.66 1.34 8.32 1 9 C0.63877119 7.68942607 0.28619689 6.37646376 -0.0625 5.0625 C-0.35833984 3.96615234 -0.35833984 3.96615234 -0.66015625 2.84765625 C-0.77230469 2.23792969 -0.88445312 1.62820313 -1 1 C-0.67 0.67 -0.34 0.34 0 0 Z " fill="#FEECCE" transform="translate(195,792)"/>
<path d="M0 0 C2.92879371 0.62759865 5.36095629 1.58622659 8 3 C5 5 5 5 1 5 C0.67 3.35 0.34 1.7 0 0 Z " fill="#7855D4" transform="translate(1068,764)"/>
<path d="M0 0 C4.875 2.75 4.875 2.75 6 5 C3.33333333 5 0.66666667 5 -2 5 C-1.34 3.35 -0.68 1.7 0 0 Z " fill="#8F6FD7" transform="translate(1125,857)"/>
<path d="M0 0 C0.66 1.65 1.32 3.3 2 5 C-1.3 4.01 -4.6 3.02 -8 2 C-8 1.67 -8 1.34 -8 1 C-2.25 0 -2.25 0 0 0 Z " fill="#8468DA" transform="translate(441,849)"/>
<path d="M0 0 C1.32 0 2.64 0 4 0 C4.33 0.66 4.66 1.32 5 2 C5.99 2.33 6.98 2.66 8 3 C8 3.66 8 4.32 8 5 C4.625 4.6875 4.625 4.6875 1 4 C0.34 3.01 -0.32 2.02 -1 1 C-0.67 0.67 -0.34 0.34 0 0 Z " fill="#6748D1" transform="translate(535,844)"/>
<path d="M0 0 C1 3 1 3 0.22265625 5.04296875 C-0.16019531 5.75066406 -0.54304688 6.45835937 -0.9375 7.1875 C-1.31777344 7.90292969 -1.69804688 8.61835937 -2.08984375 9.35546875 C-2.54037109 10.16951172 -2.54037109 10.16951172 -3 11 C-3.33 11 -3.66 11 -4 11 C-4.36630156 7.06225823 -4.30233203 5.43460229 -2 2.125 C-1.34 1.42375 -0.68 0.7225 0 0 Z " fill="#7B5EC8" transform="translate(1197,819)"/>
<path d="M0 0 C0.33 0 0.66 0 1 0 C1.33 3.3 1.66 6.6 2 10 C0.02 10.99 0.02 10.99 -2 12 C-1.34 8.04 -0.68 4.08 0 0 Z " fill="#FEA245" transform="translate(99,786)"/>
<path d="M0 0 C0.66 0.99 1.32 1.98 2 3 C1.25 4.9375 1.25 4.9375 0 7 C-2.125 7.75 -2.125 7.75 -4 8 C-2.87548273 5.0280615 -1.77706209 2.66559313 0 0 Z " fill="#734DC2" transform="translate(360,737)"/>
<path d="M0 0 C3.63 1.65 7.26 3.3 11 5 C11 5.33 11 5.66 11 6 C7.36029133 6.42820102 5.95430537 5.97413512 2.6875 4.125 C1.800625 3.42375 0.91375 2.7225 0 2 C0 1.34 0 0.68 0 0 Z " fill="#785EC7" transform="translate(1494,729)"/>
<path d="M0 0 C2.64 0 5.28 0 8 0 C8 0.99 8 1.98 8 3 C5.36 2.67 2.72 2.34 0 2 C0 1.34 0 0.68 0 0 Z " fill="#7450D3" transform="translate(561,799)"/>
<path d="M0 0 C0.66 0 1.32 0 2 0 C2.125 3.375 2.125 3.375 2 7 C1.34 7.66 0.68 8.32 0 9 C-0.33 8.67 -0.66 8.34 -1 8 C-0.82364548 5.30917128 -0.38164079 2.67148554 0 0 Z " fill="#F1F6FB" transform="translate(192,790)"/>
<path d="M0 0 C0.66 0.33 1.32 0.66 2 1 C0.35 4.3 -1.3 7.6 -3 11 C-4 7 -4 7 -3.22265625 5.078125 C-1.61132812 2.5390625 -1.61132812 2.5390625 0 0 Z " fill="#7A59C4" transform="translate(1301,767)"/>
<path d="M0 0 C0 3.58912412 -0.66436554 4.10857029 -3 6.6875 C-3.556875 7.31011719 -4.11375 7.93273437 -4.6875 8.57421875 C-5.120625 9.04472656 -5.55375 9.51523437 -6 10 C-6.99 9.67 -7.98 9.34 -9 9 C-6.03 6.03 -3.06 3.06 0 0 Z " fill="#8166C4" transform="translate(416,743)"/>
<path d="M0 0 C4.40114397 0.50298788 6.71195019 2.08772731 10 5 C8.35 5 6.7 5 5 5 C4.67 4.34 4.34 3.68 4 3 C2.68 3 1.36 3 0 3 C0 2.01 0 1.02 0 0 Z " fill="#765AC7" transform="translate(1354,728)"/>
<path d="M0 0 C3.3 1.65 6.6 3.3 10 5 C6.1851221 6.27162597 4.6068725 5.64661571 1 4 C0.67 2.68 0.34 1.36 0 0 Z " fill="#7B5EC8" transform="translate(1131,862)"/>
<path d="M0 0 C1.5625 1.1875 1.5625 1.1875 3 3 C2.6875 5.6875 2.6875 5.6875 2 8 C0.4375 6.8125 0.4375 6.8125 -1 5 C-0.6875 2.3125 -0.6875 2.3125 0 0 Z " fill="#F7F4F0" transform="translate(48,785)"/>
<path d="M0 0 C2 3 2 3 3 6 C2.34 6 1.68 6 1 6 C0.67 7.65 0.34 9.3 0 11 C-0.66 11 -1.32 11 -2 11 C-1.34 7.37 -0.68 3.74 0 0 Z " fill="#8367CB" transform="translate(349,761)"/>
<path d="M0 0 C0.6875 1.6875 0.6875 1.6875 1 4 C-0.3125 6.75 -0.3125 6.75 -2 9 C-2.66 9 -3.32 9 -4 9 C-2.94124926 5.59687262 -1.99097846 2.98646769 0 0 Z " fill="#7D5DC9" transform="translate(992,742)"/>
<path d="M0 0 C0 0.66 0 1.32 0 2 C-2.1875 3.4375 -2.1875 3.4375 -5 5 C-5.928125 5.556875 -6.85625 6.11375 -7.8125 6.6875 C-8.534375 7.120625 -9.25625 7.55375 -10 8 C-8.48502075 3.75805811 -4.70198172 0 0 0 Z " fill="#7558BE" transform="translate(427,737)"/>
<path d="M0 0 C0 0.99 0 1.98 0 3 C-2.8125 5.75 -2.8125 5.75 -6 8 C-6.99 7.67 -7.98 7.34 -9 7 C-6.03 4.69 -3.06 2.38 0 0 Z " fill="#7D63C3" transform="translate(1316,730)"/>
<path d="M0 0 C-4.625 5.875 -4.625 5.875 -8 7 C-6.53511706 1.38461538 -6.53511706 1.38461538 -4 -0.4375 C-2 -1 -2 -1 0 0 Z " fill="#6F4EC1" transform="translate(779,733)"/>
<path d="M0 0 C2.97 0.33 5.94 0.66 9 1 C9.33 1.99 9.66 2.98 10 4 C6.7 3.01 3.4 2.02 0 1 C0 0.67 0 0.34 0 0 Z " fill="#7F5FE1" transform="translate(1129,892)"/>
<path d="M0 0 C2.97 1.32 5.94 2.64 9 4 C8.67 4.66 8.34 5.32 8 6 C3.05 4.02 3.05 4.02 -2 2 C-1.34 1.34 -0.68 0.68 0 0 Z " fill="#6C49CE" transform="translate(777,848)"/>
<path d="M0 0 C2.29013653 3.4352048 2.17842973 4.985331 2 9 C1.34 9 0.68 9 0 9 C-1.125 3.375 -1.125 3.375 0 0 Z " fill="#F8FCFB" transform="translate(93,847)"/>
<path d="M0 0 C0.99 0.33 1.98 0.66 3 1 C1.35 3.64 -0.3 6.28 -2 9 C-2.33 8.01 -2.66 7.02 -3 6 C-2.34 5.34 -1.68 4.68 -1 4 C-1 3.01 -1 2.02 -1 1 C-0.67 0.67 -0.34 0.34 0 0 Z " fill="#7C64C5" transform="translate(1093,834)"/>
<path d="M0 0 C3.26954202 0.56371414 4.82575883 1.49962266 7 4 C6.01 4.33 5.02 4.66 4 5 C2.64567325 3.68799596 1.31266518 2.35368596 0 1 C0 0.67 0 0.34 0 0 Z " fill="#7552DC" transform="translate(547,851)"/>
<path d="M0 0 C2.53731364 1.26865682 2.78646846 2.49709121 4 5 C4.66 5.66 5.32 6.32 6 7 C3 7 3 7 1.61328125 5.6875 C0.40885417 4.125 -0.79557292 2.5625 -2 1 C-1.34 0.67 -0.68 0.34 0 0 Z " fill="#6D56CE" transform="translate(761,838)"/>
<path d="M0 0 C0.99 0.33 1.98 0.66 3 1 C4.1875 3.5625 4.1875 3.5625 5 6 C4.01 6.33 3.02 6.66 2 7 C1.01 5.02 0.02 3.04 -1 1 C-0.67 0.67 -0.34 0.34 0 0 Z " fill="#7255C9" transform="translate(1416,830)"/>
<path d="M0 0 C1.65 0 3.3 0 5 0 C4.67 1.65 4.34 3.3 4 5 C3.01 4.67 2.02 4.34 1 4 C0.3125 1.9375 0.3125 1.9375 0 0 Z " fill="#FEAB48" transform="translate(169,812)"/>
<path d="M0 0 C0 0.66 0 1.32 0 2 C0.66 2.33 1.32 2.66 2 3 C0.35 3.33 -1.3 3.66 -3 4 C-3 3.34 -3 2.68 -3 2 C-4.32 1.67 -5.64 1.34 -7 1 C-4.50935112 0.31292445 -2.62113708 0 0 0 Z " fill="#FCE1C4" transform="translate(82,807)"/>
<path d="M0 0 C1.32 0.66 2.64 1.32 4 2 C4 2.66 4 3.32 4 4 C2.35 4.33 0.7 4.66 -1 5 C-0.67 3.35 -0.34 1.7 0 0 Z " fill="#F7F7F5" transform="translate(178,801)"/>
<path d="M0 0 C0.928125 0.165 1.85625 0.33 2.8125 0.5 C5.95621353 1.07748388 5.95621353 1.07748388 9 1 C9 1.66 9 2.32 9 3 C5.625 3.1875 5.625 3.1875 2 3 C1.34 2.01 0.68 1.02 0 0 Z " fill="#6C48CE" transform="translate(1036,801)"/>
<path d="M0 0 C2.64 1.65 5.28 3.3 8 5 C4 6 4 6 1.75 5.0625 C1.1725 4.711875 0.595 4.36125 0 4 C0 2.68 0 1.36 0 0 Z " fill="#785BC4" transform="translate(1016,769)"/>
<path d="M0 0 C0.87840996 3.09720845 0.99435406 4.90645403 0 8 C0.66 8.33 1.32 8.66 2 9 C1.34 9 0.68 9 0 9 C-0.33 9.99 -0.66 10.98 -1 12 C-2.45606519 7.47907032 -1.27032841 4.48351204 0 0 Z " fill="#8F70CF" transform="translate(924,754)"/>
<path d="M0 0 C4.51617599 -0.07654536 8.59085217 -0.10228696 13 1 C10 3 10 3 7.51953125 2.7578125 C6.62621094 2.54898438 5.73289062 2.34015625 4.8125 2.125 C3.91144531 1.92132812 3.01039062 1.71765625 2.08203125 1.5078125 C1.39496094 1.34023438 0.70789062 1.17265625 0 1 C0 0.67 0 0.34 0 0 Z " fill="#8465CE" transform="translate(1472,725)"/>
<path d="M0 0 C0.33 0.99 0.66 1.98 1 3 C-0.62339805 4.70884005 -2.29319053 6.37446717 -4 8 C-4.66 8 -5.32 8 -6 8 C-4.768606 4.30581799 -2.79208646 2.64890254 0 0 Z " fill="#7A51C4" transform="translate(1196,860)"/>
<path d="M0 0 C0.33 0.66 0.66 1.32 1 2 C0.67 2.66 0.34 3.32 0 4 C-2.31 3.67 -4.62 3.34 -7 3 C-4.38058783 1.25372522 -2.96175123 0.61277612 0 0 Z " fill="#7350D6" transform="translate(1449,852)"/>
<path d="M0 0 C1.0326802 2.78823655 1.04509293 3.8677274 0.0625 6.75 C-0.288125 7.4925 -0.63875 8.235 -1 9 C-1.66 9 -2.32 9 -3 9 C-2.44271087 5.65626525 -1.64826111 2.96687001 0 0 Z " fill="#7C60C7" transform="translate(524,809)"/>
<path d="M0 0 C1.98 1.65 3.96 3.3 6 5 C5.67 5.99 5.34 6.98 5 8 C2.66666667 5.66666667 0.33333333 3.33333333 -2 1 C-1.34 0.67 -0.68 0.34 0 0 Z " fill="#7358D1" transform="translate(598,751)"/>
<path d="M0 0 C1.64666203 0.1135629 3.29236082 0.24117381 4.9375 0.375 C5.85402344 0.44460938 6.77054688 0.51421875 7.71484375 0.5859375 C8.84599609 0.79089844 8.84599609 0.79089844 10 1 C10.33 1.66 10.66 2.32 11 3 C8.03 3 5.06 3 2 3 C2 2.34 2 1.68 2 1 C1.34 0.67 0.68 0.34 0 0 Z " fill="#734FC6" transform="translate(1468,725)"/>
</svg>
