<svg xmlns="http://www.w3.org/2000/svg" viewBox="0 0 725 180" width="725" height="180" role="img" aria-label="rostersync wordmark">
  <path d="M29.57 135L8.18 135L8.18 65.30L25.61 65.30L26.00 88.93L28.64 88.93Q29.57 79.69 32.14 74.21Q34.72 68.74 39.53 66.23Q44.35 63.72 51.48 63.72L51.48 63.72Q52.54 63.72 53.86 63.79Q55.18 63.85 56.89 64.12L56.89 64.12L56.10 86.82Q53.99 85.76 51.55 85.43Q49.10 85.10 47.26 85.10L47.26 85.10Q42.11 85.10 38.35 87.08Q34.58 89.06 32.41 93.16Q30.23 97.25 29.57 103.45L29.57 103.45L29.57 135Z" fill="#5D41B9"></path>
    <g transform="translate(94.76 97)">
    <g fill="#5D41B9" stroke="none">
      
      <path d="&#xA;        M -28 -10&#xA;        A 30 30 0 0 1 22 -20&#xA;        L 22 -28&#xA;        L 38 -14&#xA;        L 22 -2&#xA;        L 22 -10&#xA;        A 22 22 0 0 0 -20 -10&#xA;        Z"></path>
      
      <path d="&#xA;        M 28 10&#xA;        A 30 30 0 0 1 -22 20&#xA;        L -22 28&#xA;        L -38 14&#xA;        L -22 2&#xA;        L -22 10&#xA;        A 22 22 0 0 0 20 10&#xA;        Z"></path>
    </g>
  </g>
    <path d="M170.35 136.85L170.35 136.85Q163.36 136.85 157.68 135.59Q152.00 134.34 147.78 131.96Q143.56 129.59 140.85 126.22Q138.14 122.86 137.09 118.76L137.09 118.76L152.93 111.77Q153.85 114.01 156.16 116.32Q158.47 118.63 162.37 120.08Q166.26 121.54 171.80 121.54L171.80 121.54Q177.08 121.54 180.05 120.02Q183.02 118.50 183.02 115.60L183.02 115.60Q183.02 113.48 181.37 112.23Q179.72 110.98 176.42 109.99Q173.12 109.00 168.24 108.07L168.24 108.07Q163.22 107.02 158.08 105.63Q152.93 104.24 148.44 101.80Q143.95 99.36 141.25 95.33Q138.54 91.31 138.54 85.10L138.54 85.10Q138.54 78.64 141.97 73.82Q145.40 69 152.20 66.23Q159 63.46 168.77 63.46L168.77 63.46Q177.48 63.46 184.08 65.70Q190.68 67.94 195.10 72.10Q199.52 76.26 201.24 82.07L201.24 82.07L184.21 88.14Q183.55 85.24 181.51 83.12Q179.46 81.01 176.36 79.89Q173.26 78.77 169.03 78.77L169.03 78.77Q163.88 78.77 161.05 80.35Q158.21 81.94 158.21 84.58L158.21 84.58Q158.21 86.69 160.12 88.07Q162.04 89.46 165.60 90.38Q169.16 91.31 174.05 92.36L174.05 92.36Q179.20 93.42 184.28 94.81Q189.36 96.19 193.52 98.50Q197.68 100.81 200.12 104.57Q202.56 108.34 202.56 114.28L202.56 114.28Q202.56 121.27 198.86 126.35Q195.17 131.44 187.97 134.14Q180.78 136.85 170.35 136.85ZM238.50 136.72L238.50 136.72Q226.22 136.72 220.42 130.18Q214.61 123.65 214.61 109.26L214.61 109.26L214.61 81.94L204.71 81.94L205.10 65.44L212.23 65.44Q216.46 65.30 218.63 64.12Q220.81 62.93 221.34 59.63L221.34 59.63L223.06 49.86L235.07 49.86L235.07 65.30L251.83 65.30L251.83 82.60L235.07 82.60L235.07 108.34Q235.07 112.82 237.25 114.94Q239.42 117.05 243.91 117.05L243.91 117.05Q246.42 117.05 248.66 116.52Q250.91 115.99 252.36 115.07L252.36 115.07L252.36 134.74Q248.14 136.06 244.64 136.39Q241.14 136.72 238.50 136.72ZM295.03 136.85L295.03 136.85Q286.32 136.85 279.46 134.54Q272.59 132.23 267.77 127.74Q262.96 123.25 260.45 116.65Q257.94 110.05 257.94 101.47L257.94 101.47Q257.94 93.16 260.38 86.16Q262.82 79.16 267.38 74.08Q271.93 69 278.60 66.23Q285.26 63.46 293.58 63.46L293.58 63.46Q302.03 63.46 308.43 66.16Q314.83 68.87 318.99 74.15Q323.15 79.43 325.13 87.02Q327.11 94.61 326.45 104.38L326.45 104.38L278.40 104.77Q279.06 112.82 283.02 116.78L283.02 116.78Q287.64 121.67 294.90 121.67L294.90 121.67Q298.46 121.67 300.84 120.68Q303.22 119.69 304.73 118.17Q306.25 116.65 307.11 114.80Q307.97 112.96 308.50 111.24L308.50 111.24L326.98 115.20Q325.92 120.08 323.61 124.04Q321.30 128.00 317.41 130.91Q313.51 133.81 308.03 135.33Q302.56 136.85 295.03 136.85ZM278.93 93.68L278.93 93.68L307.04 93.42Q307.04 90.12 305.99 87.61L305.99 87.61Q304.27 83.52 300.97 81.61Q297.67 79.69 293.84 79.69L293.84 79.69Q289.22 79.69 285.73 82.20Q282.23 84.71 280.25 89.46L280.25 89.46Q279.46 91.31 278.93 93.68ZM357.77 135L336.38 135L336.38 65.30L353.81 65.30L354.20 88.93L356.84 88.93Q357.77 79.69 360.34 74.21Q362.92 68.74 367.73 66.23Q372.55 63.72 379.68 63.72L379.68 63.72Q380.74 63.72 382.06 63.79Q383.38 63.85 385.09 64.12L385.09 64.12L384.30 86.82Q382.19 85.76 379.75 85.43Q377.30 85.10 375.46 85.10L375.46 85.10Q370.31 85.10 366.55 87.08Q362.78 89.06 360.61 93.16Q358.43 97.25 357.77 103.45L357.77 103.45L357.77 135ZM420.77 136.85L420.77 136.85Q413.77 136.85 408.10 135.59Q402.42 134.34 398.20 131.96Q393.97 129.59 391.27 126.22Q388.56 122.86 387.50 118.76L387.50 118.76L403.34 111.77Q404.27 114.01 406.58 116.32Q408.89 118.63 412.78 120.08Q416.68 121.54 422.22 121.54L422.22 121.54Q427.50 121.54 430.47 120.02Q433.44 118.50 433.44 115.60L433.44 115.60Q433.44 113.48 431.79 112.23Q430.14 110.98 426.84 109.99Q423.54 109.00 418.66 108.07L418.66 108.07Q413.64 107.02 408.49 105.63Q403.34 104.24 398.86 101.80Q394.37 99.36 391.66 95.33Q388.96 91.31 388.96 85.10L388.96 85.10Q388.96 78.64 392.39 73.82Q395.82 69 402.62 66.23Q409.42 63.46 419.18 63.46L419.18 63.46Q427.90 63.46 434.50 65.70Q441.10 67.94 445.52 72.10Q449.94 76.26 451.66 82.07L451.66 82.07L434.63 88.14Q433.97 85.24 431.92 83.12Q429.88 81.01 426.77 79.89Q423.67 78.77 419.45 78.77L419.45 78.77Q414.30 78.77 411.46 80.35Q408.62 81.94 408.62 84.58L408.62 84.58Q408.62 86.69 410.54 88.07Q412.45 89.46 416.02 90.38Q419.58 91.31 424.46 92.36L424.46 92.36Q429.61 93.42 434.69 94.81Q439.78 96.19 443.93 98.50Q448.09 100.81 450.53 104.57Q452.98 108.34 452.98 114.28L452.98 114.28Q452.98 121.27 449.28 126.35Q445.58 131.44 438.39 134.14Q431.20 136.85 420.77 136.85ZM488.52 159.29L488.52 159.29Q483.24 159.29 477.70 158.36Q472.15 157.44 467.20 155.66Q462.25 153.88 458.69 150.97L458.69 150.97L463.84 132.10Q468.46 136.45 474.99 138.56Q481.52 140.68 487.60 140.68L487.60 140.68Q494.59 140.68 499.15 137.97Q503.70 135.26 506.14 129.65Q508.58 124.04 508.98 115.73L508.98 115.73L509.64 104.24L506.47 104.24Q505.28 112.82 502.31 118.24Q499.34 123.65 494.79 126.22Q490.24 128.80 484.03 128.80L484.03 128.80Q476.38 128.80 471.23 124.97Q466.08 121.14 463.51 113.42Q460.93 105.70 460.93 94.21L460.93 94.21L460.93 65.30L482.32 65.30L482.32 88.93Q482.32 101.08 484.76 106.29Q487.20 111.50 492.48 111.50L492.48 111.50Q495.25 111.50 497.50 109.92Q499.74 108.34 501.32 105.43Q502.91 102.53 503.77 98.37Q504.62 94.21 504.62 89.06L504.62 89.06L504.62 65.30L525.88 65.30L525.88 116.52Q525.88 124.84 524.36 131.70Q522.84 138.56 519.87 143.71Q516.90 148.86 512.41 152.36Q507.92 155.86 501.98 157.57Q496.04 159.29 488.52 159.29ZM560.23 135L538.98 135L538.98 65.30L556.14 65.30L556.40 85.76L559.04 85.76Q560.76 78.37 563.93 73.36Q567.10 68.34 571.98 65.90Q576.86 63.46 583.46 63.46L583.46 63.46Q595.74 63.46 602.14 72.04Q608.54 80.62 608.54 99.36L608.54 99.36L608.54 135L587.16 135L587.16 101.74Q587.16 90.91 584.06 85.96Q580.96 81.01 574.88 81.01L574.88 81.01Q569.87 81.01 566.63 84.05Q563.40 87.08 561.82 92.10Q560.23 97.12 560.23 103.32L560.23 103.32L560.23 135ZM653.72 136.85L653.72 136.85Q644.75 136.85 637.88 134.34Q631.02 131.83 626.40 127.15Q621.78 122.46 619.34 115.86Q616.90 109.26 616.90 101.08L616.90 101.08Q616.90 92.63 619.34 85.76Q621.78 78.90 626.40 73.88Q631.02 68.87 637.75 66.16Q644.48 63.46 653.20 63.46L653.20 63.46Q661.91 63.46 668.24 66.23Q674.58 69 678.61 74.02Q682.63 79.03 684.08 85.63L684.08 85.63L664.42 92.23Q664.02 87.88 662.30 85.10Q660.59 82.33 657.88 81.08Q655.18 79.82 652.01 79.82L652.01 79.82Q648.71 79.82 646.20 81.14Q643.69 82.46 641.98 85.10Q640.26 87.74 639.34 91.51Q638.41 95.27 638.41 100.15L638.41 100.15Q638.41 107.15 640.19 111.83Q641.98 116.52 645.47 118.90Q648.97 121.27 653.99 121.27L653.99 121.27Q659.14 121.27 662.04 119.16Q664.94 117.05 666.26 113.95Q667.58 110.84 667.85 107.81L667.85 107.81L686.33 111.90Q685.80 116.78 683.75 121.34Q681.71 125.89 677.75 129.39Q673.79 132.89 667.91 134.87Q662.04 136.85 653.72 136.85Z" fill="#5D41B9"></path>
    <path d="M701.54 136.72L701.54 136.72Q694.68 136.72 691.31 133.81Q687.95 130.91 687.95 124.84L687.95 124.84Q687.95 118.63 691.31 115.73Q694.68 112.82 701.54 112.82L701.54 112.82Q708.54 112.82 711.97 115.73Q715.40 118.63 715.40 124.84L715.40 124.84Q715.40 136.72 701.54 136.72Z" fill="#FF912A"></path>
</svg>